<svg width="106" height="66" viewBox="0 0 106 66" fill="none" xmlns="http://www.w3.org/2000/svg">
<g clip-path="url(#clip0_17_712)">
<path d="M43.62 30.3798C45.82 29.2598 47.49 28.0198 48.61 26.6498C50.64 24.2098 51.64 21.0098 51.64 16.9998C51.64 13.1098 50.65 9.76976 48.64 6.98977C45.3 2.44977 39.64 0.139766 31.66 0.00976562H0V65.5798H29.53C32.85 65.5798 35.94 65.2798 38.79 64.6898C41.63 64.0998 44.1 62.9998 46.19 61.3998C48.04 60.0098 49.59 58.2898 50.83 56.2498C52.78 53.1698 53.74 49.6798 53.74 45.7898C53.74 42.0298 52.89 38.8198 51.19 36.1898C49.49 33.5198 46.96 31.5998 43.62 30.3798ZM15.12 11.3798H27.32C30.45 11.3798 33.04 11.7298 35.06 12.4098C37.41 13.3798 38.58 15.4098 38.58 18.4598C38.58 21.2198 37.69 23.1398 35.92 24.2198C34.15 25.2998 31.84 25.8398 28.99 25.8398H15.12V11.3798ZM35.62 53.0298C34.03 53.8098 31.83 54.1798 28.98 54.1798H15.12V36.6998H29.2C32.01 36.7298 34.2 37.0898 35.76 37.8098C38.54 39.0698 39.93 41.4298 39.93 44.8298C39.92 48.8798 38.49 51.5998 35.62 53.0298Z" fill="black"/>
<path d="M95.16 9.27973V2.71973H68.76V9.27973H95.16Z" fill="black"/>
<path d="M104.96 34.1696C104.38 30.4896 103.14 27.2496 101.21 24.4596C99.08 21.2796 96.38 18.9696 93.1 17.5096C89.82 16.0396 86.14 15.3096 82.06 15.3096C75.17 15.3096 69.59 17.4696 65.26 21.8196C60.95 26.1596 58.8 32.3996 58.8 40.5496C58.8 49.2396 61.19 55.4996 65.96 59.3596C70.74 63.2096 76.25 65.1396 82.5 65.1396C90.07 65.1396 95.96 62.8496 100.16 58.2796C102.87 55.4096 104.38 52.5796 104.71 49.7896H92.18C91.45 51.1596 90.61 52.2396 89.66 53.0096C87.91 54.4596 85.64 55.1696 82.85 55.1696C80.2 55.1696 77.94 54.5896 76.08 53.4096C72.99 51.5196 71.36 48.2196 71.17 43.4996H105.36C105.42 39.4296 105.28 36.3196 104.96 34.1696ZM71.46 35.3996C71.9 32.3296 72.99 29.9096 74.73 28.1296C76.46 26.3396 78.9 25.4396 82.06 25.4396C84.96 25.4396 87.39 26.2896 89.34 27.9796C91.3 29.6696 92.39 32.1396 92.62 35.3996H71.46Z" fill="black"/>
</g>
<defs>
<clipPath id="clip0_17_712">
<rect width="105.38" height="65.57" fill="white"/>
</clipPath>
</defs>
</svg>
