<?xml version="1.0" encoding="utf-8"?>
<!-- Generator: Adobe Illustrator 25.0.0, SVG Export Plug-In . SVG Version: 6.00 Build 0)  -->
<svg version="1.1" id="Layer_1" xmlns="http://www.w3.org/2000/svg" xmlns:xlink="http://www.w3.org/1999/xlink" x="0px" y="0px"
	 viewBox="0 0 106 66" style="enable-background:new 0 0 106 66;" xml:space="preserve">
<style type="text/css">
	.st0{clip-path:url(#SVGID_2_);}
	.st1{fill:#FFFFFF;}
</style>
<g>
	<defs>
		<rect id="SVGID_1_" width="105.4" height="65.6"/>
	</defs>
	<clipPath id="SVGID_2_">
		<use xlink:href="#SVGID_1_"  style="overflow:visible;"/>
	</clipPath>
	<g class="st0">
		<path class="st1" d="M43.6,30.4c2.2-1.1,3.9-2.4,5-3.7c2-2.4,3-5.6,3-9.6c0-3.9-1-7.2-3-10c-3.3-4.5-9-6.9-17-7H0v65.6h29.5
			c3.3,0,6.4-0.3,9.3-0.9c2.8-0.6,5.3-1.7,7.4-3.3c1.9-1.4,3.4-3.1,4.6-5.1c1.9-3.1,2.9-6.6,2.9-10.5c0-3.8-0.9-7-2.6-9.6
			C49.5,33.5,47,31.6,43.6,30.4z M15.1,11.4h12.2c3.1,0,5.7,0.4,7.7,1c2.3,1,3.5,3,3.5,6.1c0,2.8-0.9,4.7-2.7,5.8
			c-1.8,1.1-4.1,1.6-6.9,1.6H15.1V11.4z M35.6,53c-1.6,0.8-3.8,1.1-6.6,1.1H15.1V36.7h14.1c2.8,0,5,0.4,6.6,1.1
			c2.8,1.3,4.2,3.6,4.2,7C39.9,48.9,38.5,51.6,35.6,53z"/>
		<path class="st1" d="M95.2,9.3V2.7H68.8v6.6H95.2z"/>
		<path class="st1" d="M105,34.2c-0.6-3.7-1.8-6.9-3.8-9.7c-2.1-3.2-4.8-5.5-8.1-7c-3.3-1.5-7-2.2-11-2.2c-6.9,0-12.5,2.2-16.8,6.5
			c-4.3,4.3-6.5,10.6-6.5,18.7c0,8.7,2.4,15,7.2,18.8c4.8,3.8,10.3,5.8,16.5,5.8c7.6,0,13.5-2.3,17.7-6.9c2.7-2.9,4.2-5.7,4.5-8.5
			H92.2c-0.7,1.4-1.6,2.5-2.5,3.2c-1.8,1.4-4,2.2-6.8,2.2c-2.7,0-4.9-0.6-6.8-1.8c-3.1-1.9-4.7-5.2-4.9-9.9h34.2
			C105.4,39.4,105.3,36.3,105,34.2z M71.5,35.4c0.4-3.1,1.5-5.5,3.3-7.3c1.7-1.8,4.2-2.7,7.3-2.7c2.9,0,5.3,0.9,7.3,2.5
			c2,1.7,3.1,4.2,3.3,7.4H71.5z"/>
	</g>
</g>
</svg>
