<svg width="75" height="75" viewBox="0 0 75 75" fill="none" xmlns="http://www.w3.org/2000/svg">
<g clip-path="url(#clip0_17_718)">
<path d="M55.49 71.78H18.78C9.79 71.78 2.5 64.49 2.5 55.5V18.78C2.5 9.79 9.79 2.5 18.78 2.5H55.49C64.48 2.5 71.77 9.79 71.77 18.78V55.49C71.78 64.49 64.49 71.78 55.49 71.78Z" stroke="black" stroke-width="5" stroke-miterlimit="10"/>
<path d="M37.17 53.57C46.244 53.57 53.6 46.214 53.6 37.14C53.6 28.0659 46.244 20.71 37.17 20.71C28.096 20.71 20.74 28.0659 20.74 37.14C20.74 46.214 28.096 53.57 37.17 53.57Z" stroke="black" stroke-width="5" stroke-miterlimit="10"/>
<path d="M56.79 19.5602C58.5518 19.5602 59.98 18.132 59.98 16.3702C59.98 14.6084 58.5518 13.1802 56.79 13.1802C55.0282 13.1802 53.6 14.6084 53.6 16.3702C53.6 18.132 55.0282 19.5602 56.79 19.5602Z" fill="black"/>
</g>
<defs>
<clipPath id="clip0_17_718">
<rect width="74.28" height="74.28" fill="white"/>
</clipPath>
</defs>
</svg>
