<?xml version="1.0" encoding="utf-8"?>
<!-- Generator: Adobe Illustrator 25.0.0, SVG Export Plug-In . SVG Version: 6.00 Build 0)  -->
<svg version="1.1" id="Layer_1" xmlns="http://www.w3.org/2000/svg" xmlns:xlink="http://www.w3.org/1999/xlink" x="0px" y="0px"
	 viewBox="0 0 75 75" style="enable-background:new 0 0 75 75;" xml:space="preserve">
<style type="text/css">
	.st0{clip-path:url(#SVGID_2_);}
	.st1{fill:none;stroke:#FFFFFF;stroke-width:5;stroke-miterlimit:10;}
	.st2{fill:#FFFFFF;}
</style>
<g>
	<defs>
		<rect id="SVGID_1_" width="74.3" height="74.3"/>
	</defs>
	<clipPath id="SVGID_2_">
		<use xlink:href="#SVGID_1_"  style="overflow:visible;"/>
	</clipPath>
	<g class="st0">
		<path class="st1" d="M55.5,71.8H18.8c-9,0-16.3-7.3-16.3-16.3V18.8c0-9,7.3-16.3,16.3-16.3h36.7c9,0,16.3,7.3,16.3,16.3v36.7
			C71.8,64.5,64.5,71.8,55.5,71.8z"/>
		<path class="st1" d="M37.2,53.6c9.1,0,16.4-7.4,16.4-16.4c0-9.1-7.4-16.4-16.4-16.4s-16.4,7.4-16.4,16.4
			C20.7,46.2,28.1,53.6,37.2,53.6z"/>
		<path class="st2" d="M56.8,19.6c1.8,0,3.2-1.4,3.2-3.2c0-1.8-1.4-3.2-3.2-3.2c-1.8,0-3.2,1.4-3.2,3.2C53.6,18.1,55,19.6,56.8,19.6
			z"/>
	</g>
</g>
</svg>
