<svg width="68" height="65" viewBox="0 0 68 65" fill="none" xmlns="http://www.w3.org/2000/svg">
<g clip-path="url(#clip0_17_706)">
<path d="M14.7814 64.7619H0V20.6087H14.7814V64.7619ZM7.39068 14.7177C3.30509 14.7177 0 11.4173 0 7.35887C0 3.30046 3.31472 0 7.39068 0C11.4666 0 14.7814 3.30046 14.7814 7.35887C14.7814 11.4173 11.4666 14.7177 7.39068 14.7177ZM67.9904 64.7619H53.7872V43.2705C53.7872 38.1472 53.6908 31.5558 46.3965 31.5558C38.9962 31.5558 37.8591 37.1398 37.8591 42.8964V64.7619H23.6463V20.5703H37.2906V26.6051H37.4834C39.3816 23.132 44.0164 19.4669 50.935 19.4669C65.3309 19.4669 67.9904 28.62 67.9904 40.517C67.9904 40.5266 67.9904 64.7619 67.9904 64.7619Z" fill="black"/>
</g>
<defs>
<clipPath id="clip0_17_706">
<rect width="68" height="64.7619" fill="white"/>
</clipPath>
</defs>
</svg>
