<?xml version="1.0" encoding="utf-8"?>
<!-- Generator: Adobe Illustrator 25.0.0, SVG Export Plug-In . SVG Version: 6.00 Build 0)  -->
<svg version="1.1" id="Layer_1" xmlns="http://www.w3.org/2000/svg" xmlns:xlink="http://www.w3.org/1999/xlink" x="0px" y="0px"
	 viewBox="0 0 68 65" style="enable-background:new 0 0 68 65;" xml:space="preserve">
<style type="text/css">
	.st0{clip-path:url(#SVGID_2_);}
	.st1{fill:#FFFFFF;}
</style>
<g>
	<defs>
		<rect id="SVGID_1_" width="68" height="64.8"/>
	</defs>
	<clipPath id="SVGID_2_">
		<use xlink:href="#SVGID_1_"  style="overflow:visible;"/>
	</clipPath>
	<g class="st0">
		<path class="st1" d="M14.8,64.8H0V20.6h14.8V64.8z M7.4,14.7C3.3,14.7,0,11.4,0,7.4C0,3.3,3.3,0,7.4,0c4.1,0,7.4,3.3,7.4,7.4
			C14.8,11.4,11.5,14.7,7.4,14.7z M68,64.8H53.8V43.3c0-5.1-0.1-11.7-7.4-11.7c-7.4,0-8.5,5.6-8.5,11.3v21.9H23.6V20.6h13.6v6h0.2
			c1.9-3.5,6.5-7.1,13.5-7.1c14.4,0,17.1,9.2,17.1,21.1C68,40.5,68,64.8,68,64.8z"/>
	</g>
</g>
</svg>
