<svg width="363" height="366" viewBox="0 0 363 366" fill="none" xmlns="http://www.w3.org/2000/svg">
<g clip-path="url(#clip0_19_1038)">
<path d="M158.507 28.0488L155.366 0.471012L159.523 0L162.262 23.9981L174.781 22.5615L175.182 26.1412L158.507 28.0488Z" fill="black"/>
<path d="M184.866 26.5886C183.543 26.5651 182.362 26.306 181.299 25.7879C180.236 25.2698 179.41 24.5397 178.796 23.5977C178.182 22.6557 177.898 21.5017 177.922 20.1358C177.945 18.9582 178.182 17.9927 178.654 17.239C179.126 16.4854 179.74 15.8967 180.52 15.4727C181.299 15.0488 182.173 14.7191 183.118 14.5072C184.063 14.2952 185.055 14.1304 186.023 14.0362C187.275 13.9184 188.291 13.8007 189.07 13.73C189.849 13.6358 190.416 13.4945 190.77 13.2825C191.125 13.0706 191.314 12.7173 191.314 12.2463V12.1521C191.337 10.9746 191.007 10.0561 190.369 9.39669C189.708 8.73727 188.739 8.38402 187.417 8.36046C186.047 8.33691 184.96 8.61952 184.181 9.20829C183.401 9.79705 182.835 10.4565 182.527 11.1865L178.725 10.2445C179.197 8.99633 179.882 7.98365 180.756 7.20648C181.654 6.42931 182.669 5.88765 183.803 5.55794C184.96 5.22823 186.165 5.06338 187.417 5.08693C188.243 5.11048 189.141 5.20468 190.062 5.41664C191.007 5.62859 191.857 6.0054 192.684 6.52352C193.487 7.04163 194.148 7.79525 194.668 8.76082C195.187 9.7264 195.423 10.951 195.4 12.4818L195.164 26.306L191.196 26.2354L191.243 23.3858H191.078C190.794 23.9039 190.393 24.422 189.873 24.9165C189.33 25.4111 188.668 25.8115 187.818 26.1412C187.015 26.4473 186.023 26.6122 184.866 26.5886ZM185.81 23.3622C186.944 23.3858 187.889 23.1738 188.716 22.7499C189.519 22.326 190.133 21.7608 190.582 21.0307C191.03 20.3006 191.243 19.547 191.243 18.7227L191.29 16.038C191.148 16.1793 190.865 16.3206 190.44 16.4148C190.015 16.509 189.566 16.6267 189.023 16.6974C188.479 16.768 187.983 16.8387 187.487 16.9093C186.991 16.98 186.59 17.0271 186.236 17.0742C185.456 17.1684 184.724 17.3097 184.063 17.5452C183.401 17.7807 182.882 18.0869 182.504 18.5343C182.102 18.9582 181.913 19.547 181.89 20.2535C181.866 21.2662 182.244 22.0198 182.976 22.5379C183.732 23.056 184.653 23.3386 185.81 23.3622Z" fill="black"/>
<path d="M200.478 34.7136C199.887 34.6194 199.344 34.5016 198.848 34.3368C198.376 34.1719 198.021 34.0071 197.785 33.8658L199.226 30.71C199.934 31.0162 200.572 31.2046 201.163 31.2517C201.73 31.2988 202.273 31.1575 202.792 30.8278C203.288 30.498 203.784 29.8857 204.257 29.0379L204.942 27.7426L200.407 5.79346L204.706 6.40577L207.611 23.1503L207.847 23.1738L215.405 7.93656L219.727 8.54888L207.823 30.6629C207.28 31.6756 206.642 32.5234 205.91 33.1828C205.202 33.8422 204.375 34.2897 203.477 34.5487C202.58 34.8078 201.588 34.8549 200.478 34.7136Z" fill="black"/>
<path d="M227.427 32.547C225.443 31.9818 223.861 31.0868 222.68 29.8387C221.499 28.5905 220.743 27.0832 220.389 25.3169C220.034 23.5506 220.176 21.643 220.767 19.5706C221.357 17.5217 222.231 15.826 223.459 14.4601C224.664 13.1177 226.105 12.1993 227.734 11.7047C229.364 11.2101 231.135 11.2337 233.001 11.7518C234.135 12.0815 235.174 12.5761 236.143 13.2355C237.111 13.9184 237.89 14.7663 238.505 15.8025C239.119 16.8387 239.497 18.0634 239.638 19.4764C239.756 20.8894 239.567 22.4909 239.071 24.3278L238.67 25.7173L222.703 21.2427L223.53 18.3224L235.67 21.7372C235.954 20.701 236.001 19.7354 235.812 18.8405C235.623 17.9456 235.198 17.1449 234.584 16.4619C233.97 15.7789 233.143 15.3079 232.127 15.0253C231.017 14.7192 230.002 14.7192 229.033 15.0253C228.065 15.3315 227.238 15.8496 226.553 16.5797C225.868 17.3097 225.396 18.1811 225.113 19.1702L224.475 21.4311C224.097 22.7735 224.002 23.9746 224.215 25.0579C224.428 26.1412 224.876 27.0361 225.609 27.7662C226.341 28.4963 227.262 29.0144 228.396 29.3441C229.128 29.556 229.836 29.6267 230.521 29.6031C231.206 29.5796 231.82 29.3912 232.364 29.085C232.907 28.7789 233.426 28.355 233.828 27.7898L237.347 29.4854C236.733 30.4981 235.954 31.2988 234.962 31.8876C233.97 32.4763 232.836 32.8531 231.561 32.9709C230.285 33.0886 228.915 32.9473 227.427 32.547Z" fill="black"/>
<path d="M239.638 36.0325L247.551 16.7681L251.188 18.2518L249.936 21.3133L250.149 21.384C250.928 20.4891 251.873 19.9238 253.03 19.6883C254.164 19.4528 255.298 19.5706 256.431 20.0416C256.667 20.1358 256.951 20.2536 257.258 20.4184C257.565 20.5597 257.825 20.701 257.99 20.7952L256.526 24.3749C256.384 24.2807 256.148 24.1159 255.77 23.9039C255.392 23.6919 255.038 23.5035 254.636 23.3387C253.739 22.9854 252.888 22.8441 252.038 22.9383C251.188 23.0325 250.432 23.3151 249.771 23.8097C249.109 24.3043 248.59 24.9637 248.259 25.8115L243.441 37.5633L239.638 36.0325Z" fill="black"/>
<path d="M252.723 41.6846L262.029 23.056L265.666 24.8694L256.36 43.4979L252.723 41.6846ZM265.312 21.1013C264.674 20.7952 264.249 20.3006 264.013 19.6647C263.777 19.0289 263.8 18.393 264.107 17.8042C264.415 17.2155 264.887 16.8151 265.548 16.6032C266.21 16.4148 266.847 16.4619 267.485 16.768C268.123 17.0742 268.548 17.5687 268.784 18.2046C269.02 18.8405 268.997 19.4763 268.69 20.0651C268.406 20.6539 267.91 21.0542 267.249 21.2426C266.587 21.4546 265.95 21.4075 265.312 21.1013Z" fill="black"/>
<path d="M270.697 37.21L264.108 47.6664L260.659 45.4998L271.76 27.8839L275.067 29.9564L273.248 32.8295L273.461 32.9708C274.453 32.2879 275.563 31.9346 276.791 31.9346C278.019 31.9346 279.295 32.3114 280.617 33.1592C281.822 33.9129 282.719 34.8313 283.31 35.8911C283.9 36.9509 284.136 38.152 284.018 39.4473C283.9 40.7425 283.381 42.132 282.459 43.5686L275.397 54.7787L271.949 52.612L278.751 41.8259C279.554 40.5541 279.861 39.3295 279.649 38.1991C279.436 37.0686 278.751 36.1266 277.57 35.3966C276.767 34.902 275.964 34.6194 275.114 34.5723C274.287 34.5252 273.484 34.7371 272.705 35.161C271.925 35.585 271.288 36.2679 270.697 37.21Z" fill="black"/>
<path d="M280.428 69.333C279.153 68.2732 278.208 67.1899 277.594 66.083C276.98 64.9761 276.602 63.9163 276.484 62.9036C276.366 61.891 276.46 60.9254 276.72 60.0305L280.31 61.1844C280.239 61.6555 280.216 62.1736 280.239 62.7859C280.263 63.3982 280.452 64.0341 280.783 64.7406C281.113 65.4471 281.727 66.1536 282.578 66.8837C283.759 67.8728 284.963 68.4145 286.215 68.4851C287.467 68.5558 288.624 67.9906 289.663 66.7424L292.309 63.6102L292.12 63.4453C291.647 63.6337 291.057 63.775 290.348 63.8928C289.64 64.0105 288.86 63.9634 288.01 63.7515C287.136 63.5395 286.215 63.0214 285.246 62.1971C283.995 61.1373 283.097 59.8892 282.601 58.4526C282.105 57.016 282.034 55.4617 282.436 53.8131C282.837 52.1646 283.759 50.4925 285.176 48.7968C286.593 47.1012 288.128 45.9001 289.734 45.1936C291.34 44.4635 292.923 44.228 294.482 44.4164C296.04 44.6284 297.458 45.2642 298.733 46.3476C299.725 47.1718 300.386 48.0197 300.717 48.8675C301.048 49.7153 301.189 50.4925 301.166 51.2225C301.142 51.9526 301.071 52.5414 300.977 53.0359L301.213 53.2243L303.41 50.6573L306.456 53.2243L292.686 69.4507C291.529 70.8166 290.254 71.6645 288.884 72.0177C287.514 72.3474 286.097 72.2768 284.656 71.7822C283.192 71.3112 281.798 70.4869 280.428 69.333ZM288.128 60.2189C289.026 60.9725 289.947 61.3964 290.915 61.5142C291.883 61.6084 292.875 61.42 293.844 60.9018C294.836 60.3837 295.781 59.583 296.725 58.4997C297.623 57.4399 298.261 56.3566 298.638 55.2732C299.016 54.1899 299.087 53.1537 298.851 52.1881C298.615 51.199 298.048 50.3276 297.15 49.574C296.206 48.7968 295.237 48.3729 294.198 48.3258C293.159 48.2787 292.143 48.5378 291.128 49.0794C290.112 49.6211 289.191 50.4218 288.317 51.4345C287.443 52.4707 286.829 53.5305 286.475 54.5667C286.12 55.6265 286.073 56.6392 286.333 57.6048C286.593 58.5703 287.207 59.4417 288.128 60.2189Z" fill="black"/>
<path d="M327.005 65.2352L305.795 83.2044L303.079 80.025L324.288 62.0559L327.005 65.2352Z" fill="black"/>
<path d="M309.361 86.6191L326.934 75.3855L329.036 78.659L326.178 80.496L326.32 80.7079C327.524 80.4489 328.658 80.5666 329.745 81.0376C330.831 81.5087 331.729 82.3329 332.484 83.4869C333.24 84.6644 333.594 85.8184 333.547 86.9724C333.5 88.1264 333.122 89.1862 332.413 90.1753L332.532 90.3637C333.736 90.1753 334.917 90.3637 336.074 90.9289C337.232 91.4706 338.2 92.389 339.003 93.6608C340.019 95.2387 340.373 96.8637 340.019 98.5122C339.664 100.161 338.484 101.621 336.476 102.916L324.69 110.452L322.493 107.038L333.949 99.7133C335.13 98.9597 335.791 98.0883 335.909 97.0992C336.027 96.11 335.791 95.168 335.224 94.2731C334.516 93.1662 333.618 92.5068 332.532 92.3419C331.445 92.1535 330.382 92.4126 329.319 93.0956L318.124 100.255L315.927 96.8637L327.595 89.3981C328.54 88.7858 329.13 88.0086 329.319 87.043C329.508 86.0775 329.319 85.1119 328.705 84.1699C328.28 83.534 327.737 83.0394 327.052 82.7097C326.367 82.38 325.611 82.2387 324.785 82.3094C323.958 82.3565 323.155 82.6391 322.375 83.1572L311.534 90.0811L309.361 86.6191Z" fill="black"/>
<path d="M328.209 120.296C327.689 119.072 327.453 117.894 327.501 116.717C327.548 115.539 327.878 114.479 328.493 113.561C329.13 112.619 330.051 111.889 331.327 111.371C332.413 110.923 333.382 110.735 334.279 110.853C335.153 110.97 335.956 111.3 336.665 111.842C337.373 112.383 338.011 113.043 338.601 113.82C339.192 114.597 339.712 115.421 340.208 116.293C340.822 117.376 341.341 118.271 341.719 118.954C342.121 119.637 342.475 120.084 342.806 120.32C343.136 120.556 343.538 120.579 343.987 120.391L344.081 120.344C345.167 119.873 345.9 119.213 346.23 118.365C346.561 117.517 346.49 116.458 345.971 115.257C345.427 114.008 344.742 113.137 343.892 112.642C343.042 112.148 342.215 111.912 341.412 111.936L340.727 108.097C342.073 108.027 343.278 108.239 344.341 108.733C345.404 109.228 346.325 109.934 347.104 110.853C347.884 111.771 348.521 112.784 348.994 113.938C349.324 114.715 349.584 115.563 349.75 116.481C349.939 117.423 349.962 118.365 349.797 119.307C349.632 120.249 349.23 121.168 348.545 122.016C347.86 122.863 346.821 123.594 345.427 124.182L332.673 129.575L331.114 125.925L333.736 124.818L333.665 124.677C333.075 124.63 332.461 124.488 331.776 124.182C331.091 123.876 330.453 123.429 329.815 122.816C329.201 122.204 328.658 121.356 328.209 120.296ZM331.563 119.849C332.012 120.885 332.579 121.686 333.311 122.251C334.043 122.816 334.799 123.146 335.625 123.264C336.452 123.358 337.255 123.264 338.011 122.934L340.491 121.898C340.302 121.827 340.066 121.615 339.806 121.286C339.546 120.956 339.263 120.556 338.979 120.108C338.696 119.661 338.436 119.213 338.176 118.789C337.916 118.365 337.704 117.988 337.539 117.706C337.137 117.023 336.712 116.434 336.24 115.916C335.767 115.421 335.248 115.068 334.704 114.88C334.161 114.691 333.547 114.739 332.862 115.021C331.941 115.421 331.374 116.057 331.209 116.929C330.973 117.824 331.114 118.789 331.563 119.849Z" fill="black"/>
<path d="M328.469 144.389C328.044 142.787 327.878 141.351 327.997 140.103C328.115 138.831 328.422 137.747 328.918 136.853C329.414 135.958 330.028 135.204 330.76 134.615L333.051 137.606C332.72 137.936 332.413 138.36 332.083 138.878C331.752 139.396 331.539 140.032 331.398 140.809C331.28 141.586 331.35 142.505 331.658 143.588C332.059 145.072 332.744 146.202 333.736 146.979C334.728 147.756 336.003 147.945 337.562 147.521L341.53 146.461L341.459 146.202C340.963 146.084 340.397 145.872 339.759 145.566C339.121 145.26 338.507 144.789 337.917 144.106C337.326 143.447 336.854 142.481 336.547 141.257C336.122 139.679 336.122 138.148 336.523 136.664C336.925 135.204 337.775 133.909 339.027 132.778C340.302 131.648 342.003 130.8 344.152 130.235C346.301 129.67 348.238 129.528 349.962 129.858C351.686 130.188 353.127 130.871 354.285 131.93C355.442 132.99 356.245 134.333 356.67 135.934C357.001 137.182 357.072 138.242 356.859 139.113C356.646 139.985 356.316 140.715 355.891 141.304C355.465 141.892 355.064 142.34 354.71 142.693L354.781 142.976L358.04 142.104L359.079 145.943L338.46 151.43C336.736 151.901 335.2 151.878 333.878 151.36C332.555 150.865 331.445 149.994 330.547 148.769C329.65 147.545 328.918 146.108 328.469 144.389ZM339.995 141.28C340.302 142.411 340.822 143.282 341.554 143.918C342.286 144.554 343.207 144.954 344.317 145.095C345.427 145.237 346.656 145.119 348.049 144.742C349.395 144.389 350.553 143.871 351.474 143.188C352.395 142.505 353.056 141.704 353.434 140.786C353.812 139.843 353.836 138.807 353.529 137.677C353.222 136.499 352.655 135.604 351.828 134.969C351.001 134.333 350.033 133.979 348.876 133.862C347.718 133.744 346.514 133.862 345.215 134.191C343.892 134.545 342.782 135.063 341.908 135.722C341.011 136.382 340.397 137.182 340.042 138.124C339.688 139.066 339.688 140.103 339.995 141.28Z" fill="black"/>
<path d="M340.349 164.689C340.113 162.664 340.326 160.851 341.034 159.273C341.743 157.695 342.829 156.423 344.341 155.434C345.829 154.445 347.671 153.833 349.82 153.574C351.946 153.314 353.859 153.479 355.583 154.092C357.308 154.704 358.701 155.646 359.788 156.965C360.874 158.284 361.535 159.909 361.748 161.816C361.89 162.994 361.842 164.124 361.583 165.278C361.323 166.432 360.85 167.468 360.118 168.434C359.386 169.4 358.418 170.224 357.142 170.883C355.891 171.543 354.308 171.99 352.442 172.226L351.001 172.39L349.017 155.976L352.041 155.599L353.552 168.081C354.615 167.963 355.536 167.633 356.292 167.092C357.071 166.573 357.638 165.89 358.016 165.043C358.394 164.218 358.536 163.276 358.394 162.24C358.252 161.11 357.851 160.168 357.213 159.391C356.552 158.613 355.749 158.048 354.828 157.718C353.883 157.365 352.891 157.271 351.875 157.389L349.513 157.671C348.12 157.836 346.986 158.213 346.065 158.825C345.144 159.438 344.506 160.191 344.105 161.133C343.703 162.075 343.561 163.135 343.727 164.313C343.821 165.066 344.01 165.749 344.317 166.361C344.624 166.95 345.002 167.468 345.498 167.869C345.994 168.269 346.585 168.552 347.27 168.717L347.033 172.602C345.876 172.438 344.813 172.014 343.892 171.331C342.947 170.648 342.191 169.753 341.577 168.622C340.916 167.515 340.538 166.197 340.349 164.689Z" fill="black"/>
<path d="M357.497 192.997L356.906 189.323C357.379 189.182 357.827 188.946 358.253 188.617C358.678 188.287 359.032 187.863 359.315 187.298C359.599 186.733 359.741 186.05 359.764 185.202C359.788 184.048 359.552 183.082 359.032 182.329C358.536 181.552 357.875 181.151 357.072 181.151C356.387 181.151 355.82 181.387 355.371 181.905C354.946 182.423 354.568 183.247 354.285 184.378L353.458 187.675C352.986 189.582 352.277 190.995 351.332 191.914C350.387 192.832 349.183 193.28 347.719 193.256C346.467 193.233 345.357 192.856 344.412 192.126C343.443 191.396 342.711 190.383 342.168 189.088C341.625 187.793 341.389 186.309 341.412 184.637C341.459 182.305 341.979 180.421 342.995 178.961C344.01 177.501 345.451 176.63 347.317 176.323L347.86 180.256C346.821 180.492 346.042 180.963 345.522 181.716C344.979 182.47 344.719 183.459 344.695 184.66C344.672 185.979 344.931 187.062 345.475 187.863C346.018 188.664 346.703 189.088 347.506 189.088C348.167 189.088 348.711 188.876 349.159 188.381C349.608 187.91 349.962 187.18 350.199 186.191L351.025 182.682C351.498 180.751 352.23 179.314 353.222 178.419C354.214 177.501 355.442 177.077 356.93 177.101C358.158 177.124 359.245 177.477 360.142 178.184C361.063 178.89 361.772 179.856 362.268 181.057C362.764 182.258 363 183.671 362.976 185.225C362.929 187.486 362.433 189.229 361.441 190.524C360.449 191.773 359.126 192.597 357.497 192.997Z" fill="black"/>
<path d="M338.72 212.309C338.98 211.013 339.452 209.883 340.161 208.941C340.846 207.999 341.719 207.316 342.782 206.892C343.845 206.468 345.026 206.398 346.372 206.657C347.53 206.892 348.427 207.292 349.089 207.881C349.75 208.47 350.222 209.2 350.506 210.024C350.789 210.872 350.954 211.767 350.978 212.756C351.002 213.722 350.978 214.711 350.907 215.7C350.813 216.948 350.718 217.961 350.671 218.738C350.6 219.515 350.647 220.104 350.789 220.481C350.931 220.881 351.238 221.117 351.734 221.211L351.828 221.234C352.986 221.47 353.954 221.329 354.733 220.811C355.513 220.292 356.009 219.374 356.269 218.102C356.529 216.76 356.458 215.653 356.009 214.758C355.584 213.863 355.017 213.204 354.356 212.78L355.962 209.224C357.119 209.907 357.993 210.778 358.583 211.767C359.174 212.78 359.528 213.863 359.67 215.064C359.812 216.265 359.741 217.466 359.481 218.691C359.316 219.515 359.056 220.363 358.678 221.234C358.3 222.106 357.78 222.907 357.119 223.59C356.458 224.272 355.607 224.791 354.568 225.12C353.529 225.45 352.253 225.45 350.765 225.167L337.185 222.436L337.964 218.55L340.751 219.115L340.775 218.95C340.302 218.597 339.877 218.102 339.499 217.49C339.098 216.878 338.814 216.124 338.673 215.253C338.46 214.428 338.484 213.416 338.72 212.309ZM341.743 213.792C341.53 214.899 341.554 215.865 341.838 216.736C342.121 217.608 342.57 218.314 343.184 218.879C343.798 219.445 344.53 219.798 345.333 219.963L347.978 220.481C347.86 220.316 347.789 220.01 347.742 219.586C347.695 219.162 347.695 218.691 347.719 218.149C347.742 217.631 347.766 217.113 347.79 216.595C347.813 216.1 347.837 215.677 347.86 215.347C347.908 214.57 347.908 213.816 347.79 213.133C347.695 212.45 347.459 211.885 347.105 211.414C346.75 210.943 346.207 210.637 345.498 210.495C344.506 210.307 343.703 210.519 343.042 211.131C342.404 211.814 341.956 212.686 341.743 213.792Z" fill="black"/>
<path d="M346.325 234.705L334.634 230.631L335.98 226.816L355.678 233.669L354.403 237.343L351.19 236.236L351.096 236.472C351.993 237.296 352.56 238.285 352.867 239.486C353.151 240.664 353.056 242.006 352.537 243.49C352.064 244.832 351.379 245.915 350.458 246.716C349.537 247.517 348.451 248.011 347.152 248.2C345.853 248.365 344.388 248.176 342.758 247.611L330.217 243.254L331.563 239.439L343.632 243.631C345.05 244.126 346.301 244.149 347.364 243.678C348.427 243.207 349.183 242.336 349.655 241.04C349.962 240.146 350.057 239.298 349.891 238.473C349.75 237.649 349.372 236.919 348.781 236.26C348.191 235.577 347.388 235.059 346.325 234.705Z" fill="black"/>
<path d="M324.501 254.111C325.28 252.627 326.343 251.497 327.737 250.72C329.107 249.943 330.689 249.613 332.461 249.684C334.232 249.754 336.122 250.319 338.129 251.356C340.137 252.392 341.672 253.616 342.735 255.03C343.821 256.443 344.412 257.926 344.554 259.481C344.695 261.035 344.388 262.566 343.609 264.049C343.018 265.203 342.333 266.028 341.601 266.522C340.869 267.017 340.137 267.346 339.428 267.464C338.72 267.582 338.106 267.653 337.61 267.676L337.491 267.888L346.679 272.645L344.813 276.249L320.108 263.461L321.927 259.952L324.808 261.435L324.973 261.129C324.69 260.705 324.407 260.164 324.1 259.504C323.816 258.845 323.651 258.044 323.651 257.149C323.651 256.254 323.934 255.241 324.501 254.111ZM327.17 256.49C326.627 257.526 326.461 258.539 326.627 259.551C326.816 260.564 327.288 261.506 328.067 262.377C328.847 263.249 329.886 264.026 331.209 264.709C332.484 265.368 333.712 265.769 334.87 265.91C336.027 266.051 337.066 265.886 337.964 265.462C338.861 265.039 339.594 264.285 340.16 263.225C340.727 262.142 340.916 261.106 340.727 260.093C340.538 259.08 340.066 258.138 339.263 257.267C338.483 256.395 337.468 255.642 336.263 255.006C335.035 254.37 333.807 253.97 332.626 253.828C331.445 253.687 330.382 253.828 329.437 254.252C328.493 254.676 327.713 255.43 327.17 256.49Z" fill="black"/>
<path d="M331.492 290.144L334.28 292.428L320.581 309.008L317.793 306.723L323.32 300.035L304.638 284.68L307.307 281.453L325.989 296.808L331.492 290.144Z" fill="black"/>
<path d="M290.915 288.236C291.364 287.812 291.789 287.482 292.214 287.2C292.639 286.917 292.993 286.752 293.229 286.658L294.788 289.743C294.103 290.096 293.56 290.497 293.159 290.921C292.757 291.345 292.521 291.839 292.474 292.451C292.426 293.04 292.592 293.817 292.97 294.712L293.56 296.055L313.613 306.205L310.448 309.172L295.497 301.024L295.332 301.165L302.583 316.544L299.394 319.535L289.45 296.479C289.002 295.419 288.742 294.406 288.671 293.441C288.6 292.475 288.742 291.556 289.096 290.709C289.498 289.814 290.088 288.989 290.915 288.236Z" fill="black"/>
<path d="M278.326 299.799L294.953 323.114L291.718 325.399L289.757 322.643L289.474 322.832C289.545 323.326 289.545 323.915 289.521 324.645C289.498 325.375 289.285 326.129 288.883 326.93C288.482 327.73 287.773 328.507 286.71 329.261C285.341 330.227 283.853 330.745 282.294 330.839C280.711 330.91 279.152 330.509 277.617 329.638C276.082 328.766 274.641 327.424 273.342 325.587C272.043 323.75 271.216 321.96 270.909 320.218C270.602 318.475 270.72 316.873 271.287 315.413C271.854 313.953 272.822 312.728 274.192 311.763C275.232 311.033 276.2 310.609 277.098 310.491C277.995 310.373 278.798 310.421 279.507 310.609C280.215 310.797 280.782 311.033 281.231 311.245L281.42 311.103L274.995 302.107L278.326 299.799ZM285.648 316.944C284.797 315.743 283.876 314.824 282.884 314.165C281.892 313.506 280.9 313.176 279.885 313.129C278.869 313.082 277.877 313.411 276.932 314.094C275.94 314.801 275.303 315.649 275.019 316.638C274.736 317.627 274.736 318.71 275.043 319.864C275.35 321.018 275.893 322.149 276.696 323.279C277.499 324.386 278.373 325.281 279.341 325.94C280.31 326.6 281.325 326.929 282.341 326.977C283.38 327.024 284.396 326.694 285.388 325.987C286.356 325.304 286.994 324.48 287.301 323.515C287.608 322.549 287.632 321.513 287.325 320.382C287.065 319.252 286.498 318.122 285.648 316.944Z" fill="black"/>
<path d="M255.983 322.714C257.801 321.772 259.573 321.348 261.297 321.466C263.021 321.56 264.604 322.149 266.044 323.209C267.485 324.268 268.713 325.752 269.705 327.66C270.697 329.544 271.193 331.404 271.24 333.218C271.288 335.031 270.863 336.679 270.012 338.14C269.162 339.6 267.863 340.801 266.139 341.672C265.1 342.214 263.989 342.567 262.832 342.732C261.675 342.897 260.517 342.803 259.337 342.473C258.179 342.143 257.069 341.507 256.006 340.565C254.943 339.623 253.975 338.304 253.101 336.632L252.44 335.361L267.178 327.754L268.572 330.439L257.376 336.208C257.872 337.15 258.486 337.904 259.266 338.422C260.021 338.964 260.872 339.246 261.793 339.317C262.714 339.388 263.635 339.176 264.556 338.705C265.572 338.187 266.328 337.48 266.824 336.609C267.32 335.714 267.556 334.795 267.556 333.783C267.556 332.794 267.32 331.828 266.824 330.91L265.737 328.814C265.1 327.589 264.344 326.647 263.446 326.011C262.549 325.375 261.604 325.022 260.588 324.975C259.573 324.928 258.533 325.187 257.471 325.728C256.786 326.082 256.219 326.506 255.746 326.977C255.274 327.471 254.943 328.013 254.754 328.625C254.542 329.237 254.495 329.873 254.565 330.556L250.834 331.71C250.598 330.556 250.621 329.449 250.928 328.319C251.235 327.189 251.826 326.176 252.676 325.21C253.526 324.245 254.636 323.397 255.983 322.714Z" fill="black"/>
<path d="M241.882 356.957L238.008 358.158L232.127 339.364C231.891 338.611 231.607 338.093 231.253 337.786C230.899 337.48 230.545 337.315 230.143 337.292C229.742 337.268 229.34 337.315 228.915 337.457C228.608 337.551 228.348 337.669 228.112 337.786C227.899 337.904 227.71 337.998 227.592 338.069L225.892 335.102C226.081 334.937 226.388 334.748 226.766 334.536C227.143 334.324 227.663 334.112 228.277 333.901C229.293 333.571 230.308 333.453 231.3 333.547C232.292 333.641 233.19 334.018 233.993 334.631C234.796 335.243 235.363 336.161 235.741 337.362L241.882 356.957ZM232.434 354.672L231.466 351.587L242.354 348.196L243.322 351.304L232.434 354.672Z" fill="black"/>
<path d="M220.578 348.902L218.287 336.75L222.278 335.996L227.427 363.268L223.483 363.998L221.57 353.848L221.31 353.895C221.027 355.096 220.46 356.109 219.609 356.933C218.736 357.757 217.507 358.322 215.925 358.629C214.508 358.888 213.232 358.841 212.075 358.464C210.918 358.087 209.926 357.38 209.123 356.344C208.32 355.308 207.753 353.942 207.446 352.246L204.989 339.246L208.981 338.493L211.343 351.022C211.626 352.529 212.24 353.612 213.161 354.295C214.083 354.978 215.24 355.19 216.633 354.931C217.578 354.743 218.381 354.389 219.043 353.848C219.704 353.306 220.176 352.623 220.46 351.775C220.743 350.951 220.79 349.986 220.578 348.902Z" fill="black"/>
<path d="M194.337 339.576C195.659 339.506 196.864 339.694 197.95 340.141C199.037 340.589 199.911 341.248 200.596 342.167C201.257 343.085 201.635 344.216 201.706 345.582C201.753 346.759 201.588 347.725 201.163 348.502C200.737 349.279 200.171 349.915 199.415 350.386C198.659 350.857 197.832 351.234 196.888 351.516C195.943 351.799 194.998 352.011 194.006 352.176C192.754 352.388 191.762 352.553 190.983 352.694C190.203 352.835 189.66 353 189.306 353.236C188.952 353.471 188.81 353.824 188.834 354.319V354.413C188.881 355.591 189.282 356.486 189.967 357.121C190.652 357.757 191.668 358.016 192.99 357.946C194.36 357.875 195.423 357.522 196.179 356.886C196.935 356.25 197.431 355.544 197.691 354.813L201.541 355.496C201.139 356.792 200.549 357.828 199.698 358.652C198.848 359.476 197.88 360.089 196.77 360.513C195.636 360.937 194.455 361.172 193.203 361.219C192.376 361.266 191.479 361.219 190.534 361.054C189.589 360.913 188.692 360.607 187.842 360.112C186.991 359.641 186.283 358.935 185.716 358.016C185.149 357.098 184.818 355.873 184.747 354.366L184.062 340.565L188.03 340.377L188.172 343.227H188.338C188.574 342.685 188.952 342.167 189.448 341.625C189.944 341.083 190.605 340.636 191.408 340.259C192.211 339.859 193.203 339.647 194.337 339.576ZM193.628 342.873C192.494 342.92 191.55 343.203 190.77 343.674C189.991 344.169 189.4 344.757 189.022 345.511C188.645 346.265 188.456 347.018 188.503 347.842L188.645 350.527C188.786 350.386 189.046 350.221 189.471 350.08C189.896 349.938 190.345 349.821 190.865 349.703C191.384 349.585 191.904 349.491 192.376 349.397C192.872 349.303 193.274 349.232 193.605 349.161C194.384 349.02 195.093 348.832 195.73 348.549C196.368 348.29 196.864 347.913 197.218 347.466C197.573 347.018 197.738 346.429 197.714 345.699C197.667 344.687 197.266 343.957 196.486 343.486C195.73 343.038 194.762 342.826 193.628 342.873Z" fill="black"/>
<path d="M168.427 360.536L168.616 357.286L180 357.946L179.811 361.196L168.427 360.536ZM176.481 366L172.418 365.764L173.576 346.123C173.623 345.346 173.528 344.734 173.316 344.333C173.103 343.933 172.82 343.65 172.442 343.486C172.064 343.321 171.663 343.227 171.237 343.203C170.907 343.179 170.623 343.179 170.387 343.227C170.151 343.25 169.938 343.274 169.82 343.297L169.277 339.906C169.513 339.835 169.868 339.765 170.293 339.694C170.741 339.623 171.285 339.6 171.922 339.623C172.985 339.67 173.977 339.906 174.875 340.353C175.772 340.801 176.481 341.46 177 342.332C177.52 343.203 177.756 344.263 177.662 345.511L176.481 366Z" fill="black"/>
<path d="M149.437 349.185L152.295 337.174L156.239 338.116L149.791 365.105L145.894 364.187L148.28 354.154L148.02 354.083C147.288 355.072 146.343 355.755 145.209 356.156C144.076 356.556 142.729 356.58 141.147 356.203C139.753 355.873 138.596 355.308 137.698 354.484C136.801 353.659 136.187 352.623 135.88 351.351C135.573 350.08 135.62 348.62 136.021 346.924L139.092 334.042L143.036 334.984L140.084 347.395C139.73 348.879 139.848 350.127 140.415 351.116C140.981 352.129 141.95 352.788 143.32 353.118C144.264 353.33 145.138 353.33 145.965 353.118C146.792 352.906 147.5 352.458 148.114 351.799C148.752 351.14 149.177 350.268 149.437 349.185Z" fill="black"/>
<path d="M129.314 330.038C130.542 330.509 131.581 331.169 132.384 332.016C133.211 332.864 133.731 333.83 133.967 334.937C134.203 336.044 134.085 337.221 133.589 338.493C133.164 339.576 132.597 340.4 131.912 340.942C131.203 341.484 130.424 341.837 129.55 341.955C128.676 342.096 127.755 342.096 126.787 341.955C125.818 341.813 124.85 341.625 123.881 341.39C122.653 341.083 121.685 340.824 120.905 340.612C120.15 340.424 119.559 340.353 119.158 340.424C118.756 340.495 118.449 340.754 118.284 341.225L118.26 341.319C117.835 342.426 117.811 343.391 118.189 344.239C118.567 345.087 119.37 345.746 120.598 346.217C121.874 346.712 122.984 346.83 123.929 346.547C124.873 346.265 125.629 345.841 126.173 345.275L129.408 347.466C128.534 348.478 127.542 349.185 126.432 349.609C125.346 350.009 124.189 350.198 122.984 350.103C121.779 350.009 120.598 349.75 119.441 349.303C118.662 348.996 117.882 348.596 117.079 348.078C116.276 347.56 115.591 346.9 115.001 346.123C114.434 345.346 114.056 344.428 113.914 343.344C113.773 342.261 113.985 341.013 114.528 339.6L119.559 326.718L123.267 328.154L122.228 330.815L122.37 330.862C122.795 330.462 123.362 330.132 124.023 329.85C124.708 329.567 125.488 329.426 126.361 329.402C127.259 329.426 128.227 329.614 129.314 330.038ZM127.306 332.746C126.267 332.346 125.275 332.205 124.377 332.323C123.48 332.44 122.677 332.77 122.039 333.288C121.378 333.806 120.906 334.442 120.622 335.219L119.654 337.716C119.843 337.645 120.15 337.621 120.575 337.645C121 337.669 121.472 337.763 121.992 337.857C122.512 337.975 123.008 338.069 123.504 338.187C124 338.304 124.401 338.399 124.732 338.469C125.511 338.658 126.243 338.775 126.928 338.775C127.613 338.799 128.227 338.658 128.747 338.399C129.267 338.14 129.645 337.669 129.928 336.986C130.282 336.044 130.211 335.219 129.715 334.466C129.172 333.736 128.369 333.17 127.306 332.746Z" fill="black"/>
<path d="M108.813 320.712C110.277 321.536 111.387 322.643 112.119 324.033C112.851 325.422 113.135 327 113.017 328.767C112.875 330.533 112.261 332.393 111.151 334.348C110.041 336.303 108.765 337.81 107.325 338.823C105.884 339.835 104.372 340.401 102.813 340.495C101.254 340.589 99.7192 340.236 98.2548 339.411C97.1211 338.775 96.3181 338.093 95.8457 337.315C95.3733 336.562 95.0663 335.832 94.9718 335.102C94.8773 334.395 94.8065 333.783 94.8065 333.288L94.5939 333.17L89.5394 342.167L85.9966 340.189L99.6011 315.979L103.073 317.91L101.491 320.736L101.798 320.901C102.223 320.642 102.79 320.359 103.451 320.1C104.112 319.841 104.915 319.7 105.813 319.723C106.71 319.794 107.702 320.1 108.813 320.712ZM106.333 323.303C105.317 322.738 104.301 322.526 103.286 322.667C102.27 322.808 101.325 323.256 100.404 324.009C99.483 324.763 98.68 325.776 97.9714 327.047C97.2628 328.319 96.8141 329.52 96.6487 330.674C96.4834 331.828 96.6015 332.864 97.003 333.783C97.4045 334.701 98.1367 335.455 99.176 336.02C100.239 336.609 101.278 336.844 102.317 336.68C103.333 336.515 104.301 336.067 105.199 335.314C106.096 334.56 106.876 333.594 107.561 332.393C108.246 331.169 108.671 329.991 108.86 328.814C109.049 327.636 108.931 326.576 108.529 325.611C108.104 324.669 107.395 323.892 106.333 323.303Z" fill="black"/>
<path d="M87.4137 307.453L69.109 328.343L66.0386 325.681L72.8408 317.91L72.6519 317.745C72.1795 317.91 71.6126 318.075 70.8805 318.216C70.1483 318.357 69.3688 318.334 68.4949 318.122C67.621 317.91 66.6999 317.415 65.7079 316.544C64.4325 315.437 63.5822 314.142 63.1571 312.634C62.7319 311.127 62.7555 309.526 63.2279 307.83C63.7003 306.134 64.6923 304.439 66.1803 302.743C67.6683 301.047 69.2271 299.846 70.8332 299.14C72.4629 298.433 74.0454 298.174 75.6042 298.386C77.1631 298.598 78.5802 299.258 79.8557 300.365C80.8004 301.189 81.4618 302.037 81.7688 302.884C82.0995 303.732 82.2412 304.509 82.1939 305.239C82.1703 305.97 82.0995 306.582 81.9814 307.076L82.2412 307.288L84.3669 304.839L87.4137 307.453ZM77.541 312.681C78.5094 311.575 79.1943 310.468 79.5959 309.361C79.9974 308.254 80.1155 307.194 79.9029 306.205C79.714 305.216 79.1707 304.321 78.2732 303.567C77.3521 302.767 76.3837 302.343 75.3444 302.296C74.3052 302.249 73.266 302.508 72.2031 303.073C71.1639 303.638 70.1719 304.439 69.2507 305.475C68.3532 306.511 67.6919 307.571 67.2668 308.678C66.8652 309.761 66.7471 310.821 66.9597 311.834C67.1487 312.846 67.7155 313.765 68.6367 314.566C69.5342 315.343 70.4789 315.767 71.4709 315.837C72.4866 315.908 73.5022 315.672 74.5178 315.131C75.5334 314.589 76.5963 313.765 77.541 312.681Z" fill="black"/>
<path d="M64.9993 285.245C66.3456 286.799 67.1722 288.424 67.4556 290.12C67.7627 291.816 67.5501 293.488 66.8652 295.136C66.1802 296.785 64.9993 298.316 63.3696 299.729C61.7399 301.118 60.0629 302.037 58.3151 302.508C56.5673 302.955 54.8667 302.955 53.2134 302.46C51.5837 301.966 50.1193 301 48.8675 299.517C48.0881 298.622 47.4976 297.633 47.0725 296.549C46.6473 295.466 46.4584 294.312 46.5056 293.111C46.5529 291.91 46.9308 290.685 47.5921 289.437C48.2534 288.189 49.3163 286.941 50.757 285.716L51.8435 284.774L62.6846 297.303L60.37 299.281L52.1269 289.767C51.3239 290.473 50.7334 291.25 50.4028 292.122C50.0485 292.993 49.954 293.864 50.1193 294.783C50.261 295.678 50.6862 296.526 51.3711 297.326C52.1269 298.198 52.9772 298.763 53.9456 299.022C54.914 299.305 55.906 299.328 56.8743 299.093C57.8427 298.857 58.7402 298.41 59.5197 297.727L61.3147 296.172C62.3776 295.254 63.1098 294.312 63.5349 293.299C63.96 292.287 64.0545 291.274 63.8656 290.285C63.6766 289.272 63.1806 288.33 62.4012 287.435C61.9052 286.846 61.362 286.399 60.7715 286.069C60.181 285.739 59.5905 285.528 58.9528 285.48C58.3151 285.41 57.6774 285.504 57.0161 285.763L55.0321 282.419C56.0949 281.924 57.205 281.689 58.3623 281.736C59.5197 281.783 60.677 282.113 61.8107 282.701C62.9444 283.22 64.0073 284.091 64.9993 285.245Z" fill="black"/>
<path d="M52.1505 268.077C53.2606 269.796 53.8747 271.515 53.922 273.234C53.9928 274.953 53.5677 276.578 52.6465 278.133C51.7254 279.687 50.3791 281.029 48.5605 282.207C46.7654 283.361 44.9704 284.067 43.1753 284.279C41.3803 284.491 39.6797 284.256 38.1445 283.526C36.5856 282.819 35.2866 281.642 34.2237 280.017C33.586 279.028 33.1136 277.968 32.8538 276.837C32.594 275.707 32.5468 274.529 32.7594 273.352C32.9719 272.174 33.5152 270.997 34.3418 269.843C35.1685 268.689 36.3967 267.606 37.9792 266.593L39.1837 265.816L48.2298 279.687L45.6789 281.336L38.8058 270.785C37.9083 271.374 37.2233 272.057 36.7746 272.881C36.3258 273.705 36.0896 274.553 36.1133 275.471C36.1369 276.39 36.4439 277.285 37.0108 278.156C37.6249 279.122 38.4043 279.781 39.3254 280.205C40.2466 280.606 41.215 280.77 42.207 280.653C43.1989 280.558 44.1437 280.229 45.0176 279.663L47.0016 278.368C48.1825 277.615 49.0328 276.767 49.5761 275.825C50.1193 274.883 50.3791 273.894 50.3319 272.881C50.2846 271.868 49.9304 270.856 49.2926 269.866C48.8675 269.231 48.3951 268.689 47.8755 268.289C47.3559 267.888 46.7654 267.606 46.1513 267.464C45.5372 267.323 44.8759 267.323 44.1909 267.464L42.6793 263.885C43.7894 263.531 44.9231 263.437 46.0805 263.649C47.2142 263.861 48.3243 264.332 49.3635 265.062C50.4027 265.792 51.3239 266.805 52.1505 268.077Z" fill="black"/>
<path d="M32.2401 259.151L43.4591 253.923L45.1833 257.597L26.2881 266.428L24.6348 262.895L27.7052 261.459L27.5871 261.223C26.3826 261.247 25.2489 260.941 24.2096 260.305C23.1704 259.669 22.3201 258.633 21.6588 257.22C21.0447 255.924 20.8085 254.676 20.8793 253.475C20.9502 252.274 21.4226 251.144 22.2256 250.107C23.0287 249.071 24.2096 248.2 25.7685 247.47L37.7905 241.865L39.5147 245.539L27.9414 250.932C26.5715 251.568 25.674 252.439 25.2252 253.499C24.7765 254.582 24.8473 255.736 25.4378 256.984C25.8393 257.832 26.3826 258.491 27.0439 258.986C27.7288 259.481 28.5083 259.74 29.3822 259.787C30.3033 259.834 31.2481 259.622 32.2401 259.151Z" fill="black"/>
<path d="M32.9956 228.158L5.9046 234.493L3.63718 224.861C3.14118 222.765 3.11756 220.928 3.56632 219.374C4.01508 217.82 4.81813 216.524 5.97546 215.535C7.13279 214.546 8.54993 213.84 10.2033 213.463C11.8802 213.062 13.4391 213.062 14.927 213.439C16.415 213.816 17.7141 214.617 18.8006 215.818C19.887 217.019 20.6901 218.667 21.1861 220.763L22.7449 227.381L19.2966 228.205L17.8322 221.941C17.5251 220.622 17.0291 219.586 16.3678 218.879C15.7065 218.149 14.927 217.702 14.0531 217.513C13.1556 217.325 12.2109 217.325 11.1716 217.584C10.1324 217.843 9.28212 218.22 8.57355 218.809C7.86498 219.374 7.3926 220.128 7.13279 221.07C6.87298 222.012 6.92022 223.142 7.22726 224.508L8.43183 229.618L32.0272 224.108L32.9956 228.158Z" fill="black"/>
<path d="M15.376 202.582L27.7287 201.523L28.083 205.55L0.354285 207.928L0 203.948L10.3215 203.077L10.2979 202.818C9.14054 202.418 8.17216 201.758 7.43998 200.816C6.68417 199.874 6.25903 198.602 6.11731 196.977C5.99922 195.564 6.18817 194.293 6.68417 193.162C7.18017 192.055 7.98321 191.137 9.0933 190.454C10.2034 189.771 11.6205 189.347 13.3447 189.206L26.5713 188.075L26.9256 192.102L14.1714 193.186C12.6362 193.327 11.5024 193.798 10.723 194.669C9.94359 195.517 9.61292 196.648 9.73102 198.037C9.80187 199.003 10.0853 199.827 10.5577 200.533C11.0301 201.24 11.6678 201.782 12.4944 202.158C13.3211 202.535 14.2659 202.677 15.376 202.582Z" fill="black"/>
<path d="M27.3745 174.816C27.28 176.771 26.7368 178.443 25.7684 179.856C24.8 181.269 23.4773 182.329 21.824 183.035C20.1707 183.742 18.2576 184.048 16.1082 183.93C13.9353 183.812 12.0694 183.318 10.5105 182.423C8.95168 181.528 7.74711 180.35 6.92045 178.843C6.09378 177.336 5.7395 175.617 5.85759 173.662C5.97569 171.707 6.4953 170.035 7.46368 168.622C8.43206 167.209 9.75472 166.149 11.4081 165.443C13.0614 164.736 14.9745 164.43 17.1475 164.548C19.2968 164.666 21.1627 165.16 22.7215 166.055C24.2804 166.95 25.485 168.128 26.3116 169.635C27.1383 171.142 27.4926 172.861 27.3745 174.816ZM23.9733 174.604C24.0442 173.332 23.7608 172.273 23.1467 171.401C22.5326 170.53 21.6587 169.87 20.5722 169.423C19.4857 168.952 18.2576 168.693 16.9349 168.622C15.6122 168.552 14.3604 168.693 13.2267 169.023C12.093 169.352 11.1482 169.941 10.4397 170.718C9.70748 171.519 9.32958 172.532 9.25872 173.803C9.18787 175.075 9.4713 176.158 10.109 177.006C10.7467 177.878 11.597 178.537 12.7071 179.008C13.8172 179.479 15.0218 179.738 16.3444 179.809C17.6907 179.879 18.9189 179.738 20.0526 179.408C21.1863 179.079 22.1074 178.49 22.816 177.689C23.5246 176.912 23.9025 175.876 23.9733 174.604Z" fill="black"/>
<path d="M2.90527 155.74L3.5666 151.737L23.0286 154.986C23.8081 155.128 24.3985 155.104 24.8473 154.939C25.2724 154.775 25.5795 154.515 25.7921 154.162C25.981 153.809 26.1227 153.432 26.1936 152.985C26.2408 152.655 26.2644 152.372 26.2644 152.137C26.2644 151.901 26.2644 151.689 26.2408 151.548L29.6656 151.383C29.7128 151.642 29.76 151.972 29.7837 152.419C29.8073 152.867 29.76 153.409 29.6656 154.044C29.5002 155.104 29.146 156.046 28.6027 156.894C28.0595 157.742 27.3273 158.378 26.4062 158.802C25.485 159.226 24.4222 159.343 23.1704 159.131L2.90527 155.74ZM9.21154 148.369L12.4237 148.91L10.5342 160.121L7.32202 159.555L9.21154 148.369Z" fill="black"/>
<path d="M33.2319 140.008C32.6887 141.892 31.7912 143.4 30.5157 144.554C29.2403 145.708 27.7287 146.438 25.9573 146.767C24.1859 147.097 22.2727 146.956 20.1943 146.367C18.1158 145.778 16.4152 144.883 15.0689 143.659C13.7227 142.434 12.8251 141.021 12.3764 139.373C11.9276 137.724 11.9512 135.958 12.4945 134.097C13.0377 132.213 13.9352 130.706 15.187 129.552C16.4625 128.398 17.9741 127.668 19.7455 127.338C21.5169 127.008 23.4537 127.15 25.5321 127.739C27.6106 128.327 29.3112 129.246 30.6338 130.447C31.9565 131.671 32.854 133.085 33.3264 134.733C33.7988 136.382 33.7515 138.124 33.2319 140.008ZM29.9489 139.066C30.3032 137.842 30.2559 136.758 29.8544 135.769C29.4293 134.78 28.7443 133.956 27.7996 133.249C26.8548 132.543 25.7211 132.025 24.4221 131.648C23.1466 131.271 21.9184 131.13 20.7139 131.224C19.5093 131.318 18.4937 131.648 17.6198 132.26C16.7459 132.873 16.1318 133.791 15.7775 134.992C15.4232 136.217 15.4705 137.324 15.872 138.313C16.2735 139.302 16.9821 140.15 17.9505 140.833C18.9188 141.516 20.0289 142.057 21.328 142.411C22.627 142.787 23.8552 142.929 25.0361 142.834C26.2171 142.74 27.2563 142.411 28.1302 141.775C28.9805 141.209 29.5946 140.291 29.9489 139.066Z" fill="black"/>
<path d="M47.8757 122.652C47.1907 124.159 46.4113 125.36 45.5374 126.278C44.6635 127.197 43.7187 127.833 42.774 128.233C41.8056 128.633 40.8608 128.822 39.9397 128.798L40.0578 125.03C40.5302 124.983 41.0498 124.842 41.6166 124.653C42.1835 124.465 42.774 124.112 43.3644 123.594C43.9549 123.076 44.4745 122.298 44.9233 121.286C45.561 119.896 45.7263 118.577 45.4665 117.353C45.2067 116.128 44.3092 115.186 42.8212 114.527L39.0894 112.855L38.9949 113.09C39.302 113.49 39.609 114.009 39.9161 114.644C40.2231 115.28 40.3884 116.034 40.4357 116.929C40.4829 117.824 40.2231 118.836 39.7035 120.014C39.0185 121.521 38.0738 122.699 36.822 123.594C35.5702 124.489 34.1058 124.96 32.4052 125.03C30.7047 125.101 28.8388 124.701 26.8311 123.782C24.7999 122.887 23.2174 121.757 22.0837 120.414C20.95 119.072 20.2651 117.635 20.0289 116.081C19.7927 114.527 20.0289 112.996 20.7138 111.465C21.2335 110.288 21.8712 109.416 22.5797 108.875C23.2883 108.333 24.0205 107.956 24.7054 107.791C25.414 107.626 26.0045 107.509 26.5005 107.461L26.6186 107.179L23.5245 105.789L25.1542 102.163L44.6162 110.876C46.2459 111.606 47.4269 112.596 48.1355 113.82C48.844 115.045 49.1511 116.411 49.0802 117.942C49.0094 119.472 48.6078 121.027 47.8757 122.652ZM36.9637 117.8C37.4361 116.74 37.6014 115.728 37.4361 114.762C37.2707 113.797 36.7984 112.925 36.0425 112.125C35.2867 111.324 34.2475 110.617 32.9248 110.029C31.6494 109.463 30.4212 109.134 29.2875 109.086C28.1538 109.039 27.1382 109.251 26.2407 109.722C25.3668 110.217 24.6818 110.994 24.1858 112.077C23.6898 113.184 23.5481 114.244 23.7843 115.233C24.0205 116.222 24.5637 117.141 25.3668 117.965C26.1698 118.789 27.1854 119.449 28.4136 120.014C29.6654 120.579 30.8464 120.862 31.9565 120.909C33.0666 120.956 34.0586 120.72 34.9325 120.202C35.8064 119.708 36.4913 118.907 36.9637 117.8Z" fill="black"/>
<path d="M46.6004 106.708L28.6973 96.0394L30.7049 92.6717L33.5392 94.3673L33.6573 94.1789C32.8778 93.284 32.4763 92.2478 32.4054 91.0938C32.3346 89.9398 32.618 88.8329 33.2557 87.7967C33.3738 87.5847 33.5392 87.3257 33.7517 87.0431C33.9407 86.7605 34.106 86.525 34.2241 86.3837L37.5544 88.3619C37.4363 88.4797 37.2473 88.6916 36.9639 89.0213C36.6805 89.351 36.4679 89.6808 36.2553 90.0576C35.7593 90.8818 35.4995 91.7061 35.4523 92.5539C35.4051 93.4017 35.594 94.1789 35.9719 94.9325C36.3498 95.6626 36.9403 96.2749 37.7197 96.7224L48.6553 103.246L46.6004 106.708Z" fill="black"/>
<path d="M57.7954 90.3401C56.9924 91.3999 56.0712 92.2006 55.032 92.7423C53.9927 93.284 52.9063 93.543 51.7962 93.4488C50.6861 93.3546 49.5524 92.9307 48.4659 92.1064C47.5212 91.3999 46.8834 90.6228 46.5528 89.822C46.2221 88.9978 46.104 88.1499 46.2221 87.2786C46.3402 86.4072 46.5764 85.5123 46.9779 84.6173C47.3794 83.7224 47.8282 82.8511 48.3242 82.0032C48.9619 80.9199 49.4815 80.0485 49.883 79.3656C50.2846 78.6826 50.4971 78.1409 50.5444 77.7406C50.5916 77.3402 50.4027 76.9634 50.0248 76.6808L49.9539 76.6337C49.0091 75.9272 48.0644 75.621 47.1432 75.7623C46.2221 75.9036 45.3718 76.4924 44.5688 77.5286C43.7421 78.6119 43.3406 79.6482 43.3406 80.6373C43.3406 81.6264 43.5532 82.4507 43.9547 83.1337L40.9551 85.6536C40.2229 84.5231 39.7977 83.3927 39.7033 82.2152C39.6088 81.0377 39.7505 79.9072 40.1756 78.7768C40.6008 77.6464 41.1676 76.5866 41.9235 75.5975C42.4195 74.938 43.0335 74.3022 43.7657 73.6663C44.4979 73.0305 45.301 72.5594 46.1985 72.2062C47.096 71.8765 48.088 71.7823 49.1745 71.9236C50.261 72.0884 51.3947 72.6301 52.6228 73.525L63.6765 81.8855L61.2674 85.0413L59 83.3221L58.9055 83.4634C59.1653 83.9815 59.3306 84.6173 59.4251 85.3239C59.5196 86.0539 59.4487 86.8311 59.2125 87.7025C58.9527 88.5268 58.4804 89.4217 57.7954 90.3401ZM55.7169 87.6789C56.4019 86.784 56.8034 85.8891 56.9215 84.9942C57.0632 84.0992 56.9687 83.2514 56.6381 82.4742C56.3074 81.6971 55.835 81.0848 55.1737 80.5666L53.0244 78.9417C53.048 79.1536 53.0008 79.4362 52.8354 79.8366C52.6937 80.2369 52.4811 80.6608 52.2449 81.1319C52.0088 81.6029 51.7489 82.0503 51.5128 82.4978C51.2766 82.9453 51.064 83.2985 50.8987 83.5811C50.4971 84.2641 50.2137 84.9471 50.0011 85.6065C49.7886 86.2659 49.765 86.8782 49.883 87.4434C50.0011 88.0086 50.3554 88.5268 50.9223 88.9507C51.7253 89.563 52.552 89.7278 53.4023 89.4452C54.2526 89.1626 55.032 88.5739 55.7169 87.6789Z" fill="black"/>
<path d="M72.0849 83.9814L51.8198 63.7279L54.6305 60.9254L57.016 63.304L57.2522 63.0685C57.1105 62.5975 56.9924 62.0087 56.8979 61.2786C56.8034 60.5721 56.8979 59.7714 57.1341 58.9236C57.3939 58.0758 57.9608 57.1808 58.8819 56.2624C60.0628 55.0848 61.4327 54.3077 62.968 53.978C64.5032 53.6482 66.1093 53.7895 67.7863 54.3783C69.4632 54.9671 71.0929 56.074 72.6754 57.6518C74.2578 59.2297 75.3679 60.8783 75.982 62.5268C76.5961 64.1754 76.7378 65.8004 76.4072 67.3311C76.1001 68.8619 75.3443 70.2279 74.1397 71.4054C73.2422 72.3003 72.3683 72.8655 71.4944 73.1481C70.6205 73.4072 69.8411 73.5014 69.1089 73.4308C68.3767 73.3366 67.7862 73.2424 67.2902 73.101L67.1249 73.2659L74.9428 81.0847L72.0849 83.9814ZM61.9996 68.2967C63.0388 69.3329 64.1017 70.0866 65.1882 70.5576C66.2746 71.0286 67.3139 71.217 68.3295 71.0757C69.3451 70.9344 70.2662 70.4634 71.0929 69.6391C71.9432 68.7913 72.4392 67.8493 72.5573 66.813C72.6754 65.7768 72.4864 64.717 72.014 63.6337C71.518 62.5504 70.7859 61.5141 69.7939 60.525C68.8255 59.5594 67.8099 58.8294 66.747 58.3348C65.6842 57.8403 64.6449 57.6754 63.6057 57.8167C62.5665 57.958 61.6217 58.4526 60.7714 59.3004C59.9447 60.1247 59.4488 61.0431 59.307 62.0558C59.1653 63.0449 59.3307 64.0812 59.803 65.1409C60.2282 66.2478 60.9604 67.284 61.9996 68.2967Z" fill="black"/>
<path d="M78.6748 50.3983L86.1148 60.2896L82.8554 62.7153L66.1567 40.5071L69.3689 38.1049L75.5807 46.3712L75.7933 46.2063C75.5099 45.0288 75.5807 43.8513 75.9822 42.7208C76.3837 41.5904 77.234 40.5542 78.5331 39.5651C79.6668 38.7172 80.8477 38.1991 82.0759 38.0107C83.2805 37.8459 84.4851 38.0343 85.6424 38.623C86.7997 39.2118 87.9334 40.1774 88.9727 41.5669L96.9323 52.1646L93.6728 54.5904L85.9967 44.3929C85.0755 43.1683 84.0599 42.4618 82.9026 42.2498C81.7689 42.0379 80.6352 42.3676 79.5015 43.1919C78.722 43.7571 78.1788 44.44 77.8009 45.2172C77.4466 45.9944 77.3285 46.8187 77.4466 47.7136C77.5647 48.6085 78.0135 49.5034 78.6748 50.3983Z" fill="black"/>
<path d="M108.836 45.7824C107.041 46.7715 105.27 47.2425 103.546 47.1954C101.821 47.1483 100.215 46.6067 98.7509 45.594C97.2866 44.5813 96.0111 43.1212 94.9719 41.2371C93.9327 39.3766 93.3658 37.5397 93.295 35.7263C93.2241 33.9129 93.5784 32.2643 94.4051 30.7807C95.2317 29.297 96.4835 28.0723 98.1841 27.1303C99.2233 26.5651 100.31 26.1883 101.467 25.9999C102.624 25.8115 103.782 25.8586 104.963 26.1647C106.144 26.4709 107.254 27.0832 108.34 28.0017C109.427 28.9202 110.419 30.1919 111.34 31.8404L112.025 33.0886L97.4991 41.0958L96.0348 38.4346L107.065 32.3585C106.545 31.4165 105.907 30.71 105.128 30.1919C104.349 29.6738 103.498 29.3912 102.577 29.3676C101.656 29.3441 100.735 29.556 99.8138 30.0741C98.8218 30.6158 98.0896 31.3459 97.6172 32.2408C97.1449 33.1357 96.9323 34.0777 96.9559 35.0904C96.9795 36.1031 97.2629 37.0451 97.7589 37.9636L98.9163 40.036C99.6012 41.2607 100.381 42.1792 101.278 42.7915C102.176 43.4038 103.144 43.7335 104.183 43.7335C105.223 43.7335 106.238 43.4744 107.277 42.9092C107.962 42.5324 108.506 42.1085 108.954 41.6139C109.403 41.1194 109.71 40.5542 109.899 39.9418C110.088 39.3295 110.135 38.6937 110.041 37.9871L113.749 36.739C114.032 37.8694 114.032 38.9998 113.749 40.1303C113.466 41.2607 112.922 42.2969 112.096 43.286C111.245 44.181 110.159 45.0523 108.836 45.7824Z" fill="black"/>
<path d="M127.236 37.1865C125.653 37.7752 124.094 37.9165 122.559 37.5633C121.024 37.2336 119.607 36.4328 118.355 35.2082C117.079 33.9836 116.04 32.3115 115.261 30.1919C114.458 28.0959 114.127 26.1648 114.269 24.3985C114.41 22.6322 114.954 21.125 115.875 19.8532C116.796 18.5815 118.071 17.663 119.63 17.0742C120.835 16.6268 121.898 16.4384 122.795 16.5797C123.693 16.6974 124.448 16.9565 125.063 17.3333C125.677 17.7101 126.173 18.0634 126.551 18.3695L126.787 18.2753L123.126 8.64313L126.928 7.20654L136.801 33.1593L133.093 34.5724L131.936 31.5343L131.629 31.6521C131.558 32.1466 131.416 32.759 131.18 33.4419C130.944 34.1249 130.542 34.8314 129.952 35.4908C129.314 36.1738 128.44 36.739 127.236 37.1865ZM126.858 33.6539C127.944 33.23 128.771 32.5941 129.314 31.7463C129.857 30.8749 130.117 29.8622 130.117 28.6847C130.117 27.5072 129.857 26.2354 129.338 24.8695C128.818 23.5271 128.18 22.4202 127.401 21.5489C126.621 20.6775 125.748 20.1123 124.779 19.8297C123.811 19.5471 122.772 19.6177 121.661 20.0416C120.528 20.4655 119.677 21.125 119.134 22.0199C118.591 22.8912 118.331 23.9275 118.331 25.0815C118.331 26.259 118.591 27.4836 119.063 28.7553C119.559 30.0506 120.197 31.1575 120.976 32.0524C121.756 32.9474 122.653 33.5361 123.645 33.8658C124.637 34.1955 125.724 34.0778 126.858 33.6539Z" fill="black"/>
<path d="M146.23 235L121.259 147.727H141.415L155.861 208.366H156.585L172.523 147.727H189.781L205.676 208.494H206.443L220.889 147.727H241.045L216.074 235H198.091L181.472 177.94H180.79L164.213 235H146.23Z" fill="black"/>
</g>
<defs>
<clipPath id="clip0_19_1038">
<rect width="363" height="366" fill="white"/>
</clipPath>
</defs>
</svg>
