<?xml version="1.0" encoding="utf-8"?>
<!-- Generator: Adobe Illustrator 25.0.0, SVG Export Plug-In . SVG Version: 6.00 Build 0)  -->
<svg version="1.1" xmlns="http://www.w3.org/2000/svg" xmlns:xlink="http://www.w3.org/1999/xlink" x="0px" y="0px"
	 viewBox="0 0 240 245" style="enable-background:new 0 0 240 245;" xml:space="preserve">
<style type="text/css">
	.st0{clip-path:url(#SVGID_2_);}
	.st1{display:none;}
	.st2{display:inline;}
</style>
<g id="Layer_1">
	<g>
		<defs>
			<rect id="SVGID_1_" width="240" height="245"/>
		</defs>
		<clipPath id="SVGID_2_">
			<use xlink:href="#SVGID_1_"  style="overflow:visible;"/>
		</clipPath>
		<g class="st0">
			<path d="M95.9,0l4.4,20.9l-3.1,0.6L92.8,0.6L95.9,0z"/>
			<path d="M110.8,19.8c-1.6,0.2-3-0.1-4.2-0.6c-1.2-0.6-2.2-1.4-2.9-2.6c-0.7-1.2-1.2-2.6-1.3-4.2c-0.2-1.6,0-3.1,0.5-4.4
				c0.5-1.3,1.3-2.4,2.3-3.2c1-0.8,2.3-1.3,3.8-1.4c0.9-0.1,1.8,0,2.7,0.2c0.9,0.2,1.7,0.6,2.4,1.2s1.3,1.4,1.8,2.3
				c0.5,1,0.8,2.2,0.9,3.6l0.1,1.1L104.2,13l-0.2-2.3l9.7-0.9c-0.1-0.8-0.3-1.5-0.7-2.1s-0.9-1.1-1.5-1.4c-0.6-0.3-1.4-0.4-2.2-0.4
				c-0.9,0.1-1.6,0.4-2.2,0.9c-0.6,0.5-1.1,1.1-1.3,1.8c-0.3,0.7-0.4,1.5-0.3,2.3l0.2,1.8c0.1,1.1,0.4,2,0.8,2.7
				c0.5,0.7,1,1.2,1.7,1.6c0.7,0.3,1.5,0.5,2.4,0.4c0.6-0.1,1.1-0.2,1.6-0.4c0.5-0.2,0.9-0.5,1.2-0.9c0.3-0.4,0.5-0.8,0.7-1.3l3,0.2
				c-0.2,0.9-0.5,1.7-1,2.4c-0.5,0.7-1.3,1.3-2.1,1.7C113,19.4,111.9,19.7,110.8,19.8z"/>
			<path d="M125,19.5c-1-0.1-1.9-0.3-2.7-0.7c-0.8-0.4-1.4-1-1.9-1.8c-0.4-0.7-0.6-1.6-0.6-2.7c0.1-0.9,0.3-1.6,0.7-2.2
				c0.4-0.6,0.9-1,1.5-1.3c0.6-0.3,1.3-0.5,2-0.7c0.7-0.1,1.5-0.2,2.3-0.3c1,0,1.7-0.1,2.4-0.1c0.6,0,1-0.1,1.3-0.3
				c0.3-0.2,0.4-0.4,0.5-0.8V8.5c0.1-0.9-0.2-1.6-0.6-2.2c-0.5-0.5-1.2-0.8-2.2-0.9c-1-0.1-1.9,0.1-2.5,0.5
				c-0.6,0.4-1.1,0.9-1.3,1.5l-2.9-0.8c0.4-0.9,1-1.7,1.7-2.3c0.7-0.6,1.5-0.9,2.4-1.2c0.9-0.2,1.8-0.3,2.8-0.2c0.6,0,1.3,0.2,2,0.3
				c0.7,0.2,1.4,0.5,2,0.9c0.6,0.4,1.1,1,1.5,1.8c0.4,0.8,0.5,1.7,0.4,2.9l-0.6,10.6l-3.1-0.2l0.1-2.2h-0.1c-0.2,0.4-0.5,0.8-1,1.1
				c-0.4,0.4-1,0.7-1.6,0.9C126.7,19.4,125.9,19.5,125,19.5z M125.8,17c0.9,0,1.6-0.1,2.2-0.4c0.6-0.3,1.1-0.7,1.5-1.3
				c0.4-0.5,0.6-1.1,0.6-1.7l0.1-2.1c-0.1,0.1-0.3,0.2-0.7,0.3c-0.3,0.1-0.7,0.1-1.1,0.2c-0.4,0-0.8,0.1-1.2,0.1c-0.4,0-0.7,0-1,0.1
				c-0.6,0-1.2,0.1-1.7,0.3c-0.5,0.2-0.9,0.4-1.2,0.7c-0.3,0.3-0.5,0.8-0.5,1.3c0,0.8,0.2,1.4,0.7,1.8C124.2,16.7,125,16.9,125.8,17
				z"/>
			<path d="M142.1,21.6c-1.3-0.3-2.3-0.9-3.2-1.7c-0.8-0.9-1.4-2-1.7-3.3c-0.3-1.3-0.2-2.8,0.1-4.5c0.4-1.7,1-3.1,1.8-4.2
				c0.8-1.1,1.8-1.8,3-2.2c1.1-0.4,2.3-0.5,3.6-0.2c1,0.2,1.7,0.6,2.2,1c0.5,0.5,0.9,0.9,1.1,1.4s0.4,0.9,0.5,1.3l0.2,0l1.7-7.7
				l3.1,0.7L150,23.1l-3-0.7l0.5-2.4l-0.2-0.1c-0.3,0.3-0.6,0.6-1,1c-0.4,0.4-1,0.6-1.7,0.8C143.9,21.8,143.1,21.8,142.1,21.6z
				 M143.4,19.2c0.9,0.2,1.7,0.1,2.4-0.2c0.7-0.3,1.3-0.9,1.8-1.6c0.5-0.8,0.9-1.7,1.1-2.8c0.2-1.1,0.3-2.1,0.2-3
				c-0.1-0.9-0.5-1.6-1-2.2c-0.5-0.6-1.2-1-2.1-1.2c-0.9-0.2-1.7-0.1-2.5,0.2c-0.7,0.3-1.3,0.9-1.8,1.6c-0.5,0.7-0.9,1.6-1.1,2.7
				c-0.2,1-0.3,2-0.2,2.9c0.1,0.9,0.4,1.7,1,2.3C141.8,18.5,142.5,19,143.4,19.2z"/>
			<path d="M153.6,24.4l5.4-15.1l2.9,1l-5.4,15.1L153.6,24.4z M161.3,7.5c-0.5-0.2-0.9-0.5-1.1-1c-0.2-0.5-0.3-0.9-0.1-1.4
				c0.2-0.5,0.5-0.8,1-1.1c0.5-0.2,1-0.2,1.5,0c0.5,0.2,0.9,0.5,1.1,1c0.2,0.5,0.3,0.9,0.1,1.4c-0.2,0.5-0.5,0.8-1,1
				C162.3,7.7,161.8,7.7,161.3,7.5z"/>
			<path d="M167,19.4l-4.2,8.6l-2.8-1.4l7.1-14.4l2.7,1.3l-1.2,2.3l0.2,0.1c0.7-0.6,1.5-1,2.5-1.1c0.9-0.1,1.9,0.1,3,0.6
				c1,0.5,1.7,1.1,2.3,1.9c0.5,0.8,0.8,1.7,0.8,2.7c0,1-0.3,2.1-0.9,3.3l-4.5,9.2l-2.8-1.4l4.3-8.8c0.5-1,0.6-2,0.4-2.8
				c-0.2-0.9-0.9-1.5-1.8-2c-0.7-0.3-1.3-0.5-1.9-0.4c-0.7,0-1.2,0.2-1.8,0.7C167.9,18.1,167.4,18.7,167,19.4z"/>
			<path d="M176.8,43.3c-1-0.7-1.8-1.5-2.4-2.3c-0.5-0.8-0.9-1.6-1.1-2.4c-0.2-0.8-0.2-1.5,0-2.2l2.8,0.7c0,0.4,0,0.8,0,1.2
				c0.1,0.5,0.2,0.9,0.5,1.5c0.3,0.5,0.8,1,1.5,1.5c1,0.7,1.9,1,2.9,1c1,0,1.8-0.5,2.5-1.6l1.8-2.6l-0.2-0.1
				c-0.4,0.2-0.8,0.3-1.3,0.5c-0.5,0.1-1.1,0.2-1.8,0c-0.7-0.1-1.4-0.5-2.2-1c-1-0.7-1.8-1.6-2.3-2.7c-0.5-1.1-0.6-2.3-0.4-3.5
				c0.2-1.3,0.8-2.6,1.8-4c1-1.4,2.1-2.4,3.3-3.1c1.2-0.7,2.4-0.9,3.6-0.9c1.2,0.1,2.3,0.5,3.4,1.2c0.8,0.6,1.4,1.2,1.7,1.8
				c0.3,0.6,0.5,1.2,0.5,1.8c0,0.6,0,1,0,1.4l0.2,0.1l1.5-2.1l2.5,1.8l-9.5,13.3c-0.8,1.1-1.7,1.9-2.8,2.2c-1,0.3-2.1,0.4-3.3,0.1
				C179.1,44.6,177.9,44.1,176.8,43.3z M182.1,35.8c0.7,0.5,1.5,0.8,2.2,0.8c0.7,0,1.5-0.2,2.2-0.7c0.7-0.5,1.4-1.1,2.1-2
				c0.6-0.9,1-1.7,1.3-2.6c0.2-0.9,0.2-1.6,0-2.4s-0.7-1.4-1.5-1.9c-0.8-0.5-1.5-0.8-2.3-0.8c-0.8,0-1.6,0.3-2.3,0.8
				c-0.7,0.5-1.4,1.2-2,2c-0.6,0.9-1,1.7-1.2,2.5c-0.2,0.8-0.2,1.6,0.1,2.3C180.8,34.6,181.3,35.3,182.1,35.8z"/>
			<path d="M209.8,37.1l2.1,2.3l-11.2,10.3c-0.5,0.4-0.7,0.8-0.8,1.1c-0.1,0.3-0.1,0.7,0,0.9c0.1,0.3,0.3,0.6,0.5,0.8
				c0.2,0.2,0.3,0.3,0.5,0.5c0.2,0.1,0.3,0.2,0.4,0.3l-1.5,2.2c-0.2-0.1-0.4-0.2-0.7-0.4c-0.3-0.2-0.6-0.5-0.9-0.8
				c-0.6-0.6-1-1.3-1.2-2s-0.3-1.5-0.1-2.2c0.2-0.7,0.6-1.5,1.3-2.1L209.8,37.1z M211.3,44.4l-1.8,1.7l-6-6.4l1.8-1.7L211.3,44.4z"
				/>
			<path d="M205,63c-0.9-1.2-1.4-2.5-1.4-3.8c-0.1-1.3,0.2-2.6,0.8-3.8c0.7-1.2,1.7-2.3,3-3.3c1.4-1,2.7-1.6,4.1-1.8
				c1.4-0.2,2.7-0.1,3.9,0.5c1.2,0.5,2.3,1.4,3.1,2.6c0.9,1.2,1.4,2.5,1.4,3.8c0.1,1.3-0.2,2.6-0.9,3.8c-0.7,1.2-1.7,2.3-3,3.3
				c-1.4,1-2.7,1.5-4.1,1.8c-1.4,0.2-2.7,0.1-3.9-0.5C206.9,65.1,205.8,64.2,205,63z M207.1,61.5c0.6,0.8,1.2,1.3,2,1.5
				c0.8,0.2,1.6,0.2,2.5,0c0.9-0.2,1.7-0.7,2.6-1.3c0.8-0.6,1.5-1.3,2-2c0.5-0.7,0.8-1.5,0.9-2.4c0.1-0.8-0.2-1.6-0.8-2.4
				c-0.6-0.8-1.2-1.3-2.1-1.5c-0.8-0.2-1.6-0.2-2.5,0c-0.9,0.2-1.7,0.7-2.6,1.3c-0.8,0.6-1.5,1.3-2,2c-0.5,0.7-0.8,1.5-0.9,2.3
				C206.3,59.8,206.5,60.7,207.1,61.5z"/>
			<path d="M233,71l1.3,2.9L220.3,80c-0.6,0.2-0.9,0.5-1.1,0.8c-0.2,0.3-0.3,0.6-0.3,0.9c0,0.3,0.1,0.6,0.2,0.9
				c0.1,0.2,0.2,0.4,0.3,0.6c0.1,0.2,0.2,0.3,0.2,0.4l-2.1,1.6c-0.1-0.1-0.3-0.3-0.5-0.6c-0.2-0.3-0.4-0.6-0.6-1.1
				c-0.3-0.7-0.5-1.5-0.5-2.3c0-0.8,0.2-1.5,0.6-2.1c0.4-0.7,1.1-1.2,1.9-1.6L233,71z M232,78.4l-2.3,1l-3.5-8l2.3-1L232,78.4z"/>
			<path d="M228.6,88.1l-9.2,2.6l-0.9-3l20.6-5.9l0.8,3l-7.7,2.2l0.1,0.2c0.9,0.1,1.7,0.5,2.5,1.1c0.7,0.6,1.2,1.5,1.6,2.7
				c0.3,1.1,0.3,2,0.1,3c-0.2,0.9-0.7,1.7-1.4,2.4c-0.7,0.7-1.7,1.2-3,1.6l-9.8,2.8l-0.9-3l9.5-2.7c1.1-0.3,1.9-0.9,2.4-1.6
				c0.5-0.8,0.5-1.7,0.2-2.7c-0.2-0.7-0.5-1.3-1-1.8c-0.5-0.5-1-0.8-1.7-0.9C230.1,87.9,229.4,87.9,228.6,88.1z"/>
			<path d="M223.4,111c-0.2-1.6,0-3,0.5-4.2c0.5-1.2,1.4-2.2,2.6-2.9c1.2-0.8,2.6-1.2,4.2-1.4c1.6-0.2,3.1,0,4.4,0.4
				c1.3,0.5,2.4,1.2,3.2,2.2c0.8,1,1.3,2.3,1.5,3.7c0.1,0.9,0.1,1.8-0.1,2.7c-0.2,0.9-0.6,1.7-1.1,2.4c-0.6,0.7-1.3,1.4-2.3,1.9
				c-1,0.5-2.2,0.8-3.6,1l-1.1,0.1l-1.5-12.7l2.3-0.3l1.1,9.6c0.8-0.1,1.5-0.3,2.1-0.7c0.6-0.4,1-0.9,1.3-1.6
				c0.3-0.6,0.4-1.4,0.3-2.2c-0.1-0.9-0.4-1.6-0.9-2.2c-0.5-0.6-1.1-1-1.8-1.3c-0.7-0.3-1.5-0.4-2.3-0.3l-1.8,0.2
				c-1.1,0.1-1.9,0.4-2.7,0.9c-0.7,0.5-1.2,1.1-1.5,1.8c-0.3,0.7-0.4,1.5-0.3,2.4c0.1,0.6,0.2,1.1,0.4,1.6c0.2,0.5,0.5,0.9,0.9,1.2
				c0.4,0.3,0.8,0.5,1.4,0.7l-0.2,3c-0.9-0.1-1.7-0.5-2.4-1c-0.7-0.5-1.3-1.2-1.8-2.1C223.8,113.2,223.5,112.2,223.4,111z"/>
			<path d="M223.6,132.6c0.1-1,0.4-1.9,0.9-2.7c0.5-0.8,1.1-1.4,1.9-1.8c0.8-0.4,1.7-0.5,2.7-0.4c0.9,0.1,1.6,0.4,2.2,0.8
				c0.5,0.4,1,0.9,1.2,1.6c0.3,0.6,0.5,1.3,0.5,2.1c0.1,0.7,0.1,1.5,0.2,2.3c0,1,0,1.8,0,2.3c0,0.6,0.1,1,0.2,1.3
				c0.1,0.3,0.4,0.5,0.8,0.5h0.1c0.9,0.1,1.6-0.1,2.2-0.5c0.6-0.5,0.9-1.2,1-2.2c0.1-1,0-1.9-0.4-2.5c-0.4-0.7-0.9-1.1-1.4-1.4
				l1-2.8c0.9,0.5,1.7,1,2.2,1.8c0.5,0.7,0.9,1.6,1.1,2.5c0.2,0.9,0.2,1.8,0.1,2.8c-0.1,0.6-0.2,1.3-0.5,2c-0.2,0.7-0.6,1.3-1,1.9
				c-0.5,0.6-1.1,1-1.9,1.4c-0.8,0.3-1.7,0.4-2.9,0.3l-10.6-1.2l0.3-3l2.2,0.2l0-0.1c-0.4-0.2-0.7-0.6-1.1-1c-0.3-0.5-0.6-1-0.8-1.6
				C223.5,134.2,223.5,133.5,223.6,132.6z M226,133.5c-0.1,0.9,0,1.6,0.3,2.3c0.3,0.7,0.7,1.2,1.2,1.5c0.5,0.4,1.1,0.6,1.7,0.7
				l2.1,0.2c-0.1-0.1-0.2-0.3-0.2-0.7c-0.1-0.3-0.1-0.7-0.1-1.1c0-0.4,0-0.8,0-1.2c0-0.4,0-0.7,0-1c0-0.6-0.1-1.2-0.2-1.7
				s-0.3-0.9-0.6-1.3c-0.3-0.3-0.7-0.5-1.3-0.6c-0.8-0.1-1.4,0.1-1.8,0.7C226.4,132,226.1,132.7,226,133.5z"/>
			<path d="M220.4,150.3c0.4-1.5,1.1-2.7,2.1-3.6c1-0.9,2.1-1.5,3.5-1.7c1.4-0.2,2.8-0.2,4.4,0.2c1.6,0.4,2.9,1.1,3.9,2
				c1.1,0.9,1.8,2,2.2,3.3s0.4,2.6,0,4.1c-0.3,1.2-0.8,2.2-1.5,3c-0.7,0.8-1.5,1.4-2.4,1.7c-0.9,0.4-1.9,0.5-3,0.3l0.8-2.9
				c0.8,0,1.5-0.2,2.2-0.6c0.7-0.4,1.2-1.1,1.4-2.1c0.2-0.8,0.2-1.6-0.1-2.4c-0.3-0.7-0.8-1.4-1.5-2c-0.7-0.6-1.6-1-2.7-1.3
				c-1.1-0.3-2.2-0.4-3.1-0.3c-0.9,0.1-1.7,0.4-2.3,0.9c-0.6,0.5-1,1.2-1.3,2c-0.2,0.6-0.2,1.1-0.1,1.6c0.1,0.5,0.3,1,0.6,1.4
				c0.3,0.4,0.7,0.8,1.2,1.1l-0.8,2.9c-1-0.4-1.8-0.9-2.4-1.7c-0.6-0.8-1.1-1.6-1.3-2.7C220,152.6,220,151.5,220.4,150.3z"/>
			<path d="M215,165.2c0.6-1.4,1.5-2.5,2.6-3.2c1.1-0.7,2.3-1.1,3.7-1.2c1.4,0,2.8,0.3,4.3,0.9c1.5,0.7,2.7,1.5,3.6,2.6
				c0.9,1.1,1.4,2.3,1.6,3.6c0.2,1.3,0,2.6-0.6,4c-0.5,1.1-1.1,2-1.9,2.7c-0.8,0.7-1.7,1.1-2.7,1.4c-1,0.2-2,0.1-3-0.2l1.2-2.8
				c0.8,0.2,1.5,0.1,2.2-0.3c0.7-0.3,1.3-0.9,1.7-1.9c0.4-0.8,0.5-1.6,0.3-2.4c-0.2-0.8-0.5-1.5-1.2-2.2c-0.6-0.7-1.5-1.2-2.5-1.7
				c-1.1-0.5-2.1-0.7-3-0.7c-0.9,0-1.7,0.2-2.4,0.6c-0.7,0.4-1.2,1-1.6,1.8c-0.2,0.5-0.4,1.1-0.4,1.6c0,0.5,0.1,1,0.4,1.5
				s0.6,0.9,1.1,1.2l-1.2,2.8c-0.9-0.5-1.6-1.2-2.1-2.1c-0.5-0.8-0.8-1.8-0.8-2.8C214.2,167.5,214.5,166.4,215,165.2z"/>
			<path d="M211,173.7l13.9,8.1l-1.6,2.7l-13.9-8.1L211,173.7z M226.3,184.4c0.3-0.5,0.7-0.8,1.2-0.9c0.5-0.2,1-0.1,1.4,0.2
				c0.5,0.3,0.7,0.7,0.8,1.2c0.1,0.5,0,1-0.2,1.5c-0.3,0.5-0.7,0.8-1.2,0.9c-0.5,0.2-1,0.1-1.4-0.2c-0.4-0.3-0.7-0.6-0.8-1.2
				C225.9,185.4,226,184.9,226.3,184.4z"/>
			<path d="M203.8,184.2c0.8-1,1.7-1.8,2.9-2.2c1.1-0.4,2.4-0.5,3.7-0.2c1.3,0.3,2.7,0.9,4.1,2c1.4,1,2.4,2.2,3,3.4
				c0.6,1.2,0.9,2.4,0.8,3.6c-0.1,1.2-0.5,2.3-1.3,3.3c-0.6,0.8-1.2,1.3-1.9,1.6c-0.6,0.3-1.2,0.4-1.8,0.4c-0.6,0-1,0-1.4-0.1
				l-0.1,0.2l6.4,4.8l-1.9,2.5l-17.1-12.9l1.8-2.4l2,1.5l0.2-0.2c-0.2-0.4-0.3-0.8-0.5-1.4c-0.1-0.5-0.2-1.2,0-1.9
				C202.9,185.7,203.2,185,203.8,184.2z M205.6,186.4c-0.5,0.7-0.8,1.5-0.8,2.3c0,0.8,0.2,1.6,0.7,2.3c0.5,0.8,1.2,1.5,2.1,2.2
				c0.9,0.7,1.8,1.1,2.6,1.4c0.9,0.2,1.7,0.3,2.4,0c0.7-0.2,1.4-0.7,2-1.4c0.6-0.7,0.8-1.5,0.8-2.3c0-0.8-0.3-1.6-0.7-2.3
				c-0.5-0.8-1.2-1.5-2-2.1c-0.9-0.7-1.7-1.1-2.6-1.4c-0.9-0.2-1.7-0.3-2.5-0.1C206.8,185.1,206.1,185.6,205.6,186.4z"/>
			<path d="M191.6,198c1.2-1.1,2.4-1.8,3.7-2.1c1.3-0.3,2.6-0.2,3.9,0.3c1.3,0.5,2.5,1.3,3.7,2.5c1.1,1.2,1.9,2.4,2.3,3.8
				c0.4,1.3,0.5,2.6,0.2,3.9c-0.3,1.3-1,2.4-2.1,3.5c-0.7,0.6-1.4,1.1-2.2,1.5c-0.8,0.4-1.7,0.6-2.6,0.6c-0.9,0-1.9-0.2-2.9-0.7
				c-1-0.5-2-1.2-3-2.3l-0.8-0.8l9.3-8.8l1.6,1.7l-7,6.7c0.6,0.6,1.2,1,1.9,1.2c0.7,0.2,1.4,0.3,2.1,0.1c0.7-0.2,1.3-0.5,1.9-1.1
				c0.6-0.6,1-1.3,1.2-2.1c0.2-0.8,0.2-1.5-0.1-2.2c-0.2-0.7-0.6-1.4-1.2-2l-1.3-1.3c-0.7-0.8-1.5-1.3-2.3-1.6
				c-0.8-0.3-1.6-0.3-2.3-0.1c-0.8,0.2-1.5,0.6-2.1,1.2c-0.4,0.4-0.8,0.8-1,1.3c-0.2,0.5-0.4,0.9-0.4,1.4c0,0.5,0.1,1,0.3,1.5
				l-2.5,1.6c-0.4-0.8-0.7-1.6-0.7-2.5c0-0.9,0.2-1.8,0.6-2.7C190.1,199.6,190.7,198.8,191.6,198z"/>
			<path d="M187.5,214.2l-5.4-7.9l2.6-1.8l9.1,13.2l-2.5,1.7l-1.5-2.1l-0.2,0.1c0.2,0.9,0.1,1.8-0.3,2.7c-0.4,0.9-1,1.6-2,2.3
				c-0.9,0.6-1.8,1-2.8,1.1c-0.9,0.1-1.9-0.1-2.7-0.6c-0.9-0.5-1.7-1.3-2.4-2.4l-5.8-8.4l2.6-1.8l5.6,8.1c0.7,1,1.4,1.5,2.3,1.7
				c0.9,0.2,1.7,0,2.6-0.6c0.6-0.4,1-0.9,1.3-1.5c0.3-0.6,0.4-1.2,0.3-1.9C188.3,215.6,188,215,187.5,214.2z"/>
			<path d="M178.5,232l-2.8,1.4l-6.9-13.5c-0.3-0.5-0.6-0.9-0.9-1.1c-0.3-0.2-0.6-0.3-0.9-0.2c-0.3,0-0.6,0.1-0.9,0.3
				c-0.2,0.1-0.4,0.2-0.6,0.3c-0.2,0.1-0.3,0.2-0.4,0.3l-1.7-2c0.1-0.1,0.3-0.3,0.6-0.5c0.3-0.2,0.6-0.4,1.1-0.7
				c0.7-0.4,1.5-0.6,2.2-0.7c0.8,0,1.5,0.1,2.2,0.5c0.7,0.4,1.2,1,1.7,1.9L178.5,232z M171.1,231.5l-1.1-2.2l7.8-4l1.1,2.2
				L171.1,231.5z"/>
			<path d="M156.7,219.7c1-0.3,1.9-0.5,2.8-0.4c0.9,0.1,1.7,0.4,2.4,0.9c0.7,0.5,1.2,1.3,1.6,2.3c0.3,0.9,0.4,1.6,0.3,2.3
				c-0.1,0.7-0.4,1.3-0.9,1.8c-0.4,0.5-1,1-1.6,1.4c-0.6,0.4-1.3,0.8-2,1.1c-0.9,0.4-1.6,0.8-2.1,1c-0.5,0.3-0.9,0.5-1.1,0.8
				c-0.2,0.2-0.2,0.5-0.1,0.9l0,0.1c0.3,0.9,0.8,1.4,1.4,1.7c0.7,0.3,1.5,0.3,2.4-0.1c1-0.4,1.7-0.9,2.1-1.5
				c0.4-0.6,0.6-1.3,0.7-1.9l3-0.4c0,1-0.2,1.9-0.7,2.7c-0.4,0.8-1,1.5-1.7,2c-0.7,0.6-1.6,1-2.5,1.3c-0.6,0.2-1.3,0.4-2,0.5
				c-0.7,0.1-1.5,0.1-2.2-0.1c-0.7-0.2-1.4-0.5-2-1.1c-0.6-0.6-1.1-1.4-1.5-2.5l-3.6-10l2.9-1l0.7,2.1l0.1,0
				c0.1-0.5,0.2-0.9,0.5-1.4c0.2-0.5,0.6-1,1.1-1.4C155.2,220.4,155.8,220,156.7,219.7z M156.9,222.3c-0.8,0.3-1.5,0.7-1.9,1.2
				s-0.8,1.1-0.9,1.7c-0.1,0.6-0.1,1.2,0.1,1.8l0.7,1.9c0.1-0.1,0.2-0.3,0.5-0.5c0.3-0.2,0.6-0.4,0.9-0.6c0.4-0.2,0.7-0.4,1.1-0.6
				c0.3-0.2,0.6-0.3,0.9-0.5c0.5-0.3,1-0.6,1.4-0.9c0.4-0.3,0.7-0.7,0.9-1.1c0.2-0.4,0.2-0.9,0-1.4c-0.3-0.7-0.7-1.2-1.4-1.4
				C158.5,221.9,157.7,222,156.9,222.3z"/>
			<path d="M147.6,245l-4.9-20.8l3-0.7l4.9,20.8L147.6,245z"/>
			<path d="M125,226.1c1.6-0.1,2.9,0.2,4.1,0.9c1.2,0.7,2.1,1.6,2.7,2.8c0.7,1.2,1,2.6,1.1,4.2c0.1,1.6-0.2,3.1-0.7,4.4
				s-1.4,2.3-2.4,3c-1.1,0.8-2.4,1.2-3.9,1.2c-1.2,0.1-2.3-0.1-3.3-0.5c-1-0.4-1.8-1-2.4-1.8s-1-1.7-1.2-2.8l3-0.2
				c0.2,0.7,0.6,1.4,1.2,1.9c0.6,0.5,1.4,0.7,2.4,0.7c0.9,0,1.6-0.3,2.2-0.8c0.6-0.5,1.1-1.2,1.4-2c0.3-0.9,0.5-1.9,0.4-3
				c-0.1-1.2-0.3-2.2-0.7-3c-0.4-0.8-0.9-1.5-1.6-1.9c-0.7-0.4-1.5-0.6-2.3-0.6c-0.6,0-1.1,0.2-1.6,0.4c-0.5,0.2-0.9,0.6-1.2,1
				c-0.3,0.4-0.5,0.9-0.6,1.5l-3,0.2c0.1-1,0.4-2,0.9-2.8c0.5-0.9,1.2-1.5,2.2-2C122.7,226.5,123.8,226.2,125,226.1z"/>
			<path d="M115.7,226.5l-1.2,16l-3-0.2l0.2-2.5l-0.2,0c-0.4,0.8-0.9,1.5-1.7,1.9s-1.6,0.6-2.6,0.5c-0.2,0-0.4,0-0.7-0.1
				c-0.3,0-0.5-0.1-0.6-0.1l0.2-3c0.1,0,0.3,0.1,0.7,0.2c0.3,0.1,0.6,0.1,1,0.1c0.7,0.1,1.4,0,2-0.3c0.6-0.3,1.1-0.7,1.5-1.2
				c0.4-0.5,0.6-1.1,0.6-1.8l0.8-9.8L115.7,226.5z"/>
			<path d="M98.9,224c1.6,0.3,2.8,0.9,3.8,1.8c1,0.9,1.7,2,2,3.3c0.4,1.3,0.4,2.8,0,4.4c-0.3,1.6-0.9,3-1.8,4.1
				c-0.9,1.1-1.9,1.9-3.1,2.3c-1.2,0.5-2.6,0.5-4,0.2c-0.9-0.2-1.7-0.5-2.5-1c-0.8-0.5-1.4-1.1-2-1.8c-0.5-0.8-0.9-1.7-1.1-2.8
				c-0.2-1.1-0.1-2.3,0.2-3.7l0.2-1.1l12.5,2.6l-0.5,2.3l-9.5-2c-0.2,0.8-0.2,1.6,0,2.2c0.2,0.7,0.6,1.3,1.1,1.8
				c0.5,0.5,1.2,0.8,2,1c0.9,0.2,1.7,0.1,2.4-0.2c0.7-0.3,1.3-0.7,1.8-1.3c0.5-0.6,0.8-1.3,1-2.1l0.4-1.8c0.2-1,0.2-2,0-2.8
				c-0.2-0.8-0.6-1.5-1.2-2c-0.6-0.5-1.3-0.9-2.2-1.1c-0.6-0.1-1.1-0.1-1.6-0.1c-0.5,0.1-1,0.2-1.4,0.5c-0.4,0.3-0.8,0.6-1.1,1.1
				l-2.8-1.1c0.4-0.8,1-1.5,1.7-2c0.7-0.5,1.6-0.9,2.6-1C96.7,223.8,97.7,223.8,98.9,224z"/>
			<path d="M85.2,220.2c1,0.4,1.7,0.9,2.4,1.5c0.6,0.6,1,1.4,1.2,2.2c0.2,0.8,0.1,1.8-0.3,2.7c-0.3,0.8-0.7,1.5-1.3,1.9
				c-0.5,0.4-1.1,0.7-1.8,0.8s-1.4,0.1-2.1,0c-0.7-0.1-1.5-0.2-2.2-0.4c-0.9-0.2-1.7-0.4-2.3-0.6c-0.6-0.1-1-0.2-1.4-0.1
				c-0.3,0.1-0.5,0.3-0.7,0.6l0,0.1c-0.3,0.9-0.3,1.6,0,2.3c0.3,0.7,0.9,1.2,1.9,1.5c1,0.4,1.8,0.5,2.6,0.2c0.7-0.2,1.3-0.6,1.7-1
				l2.5,1.7c-0.7,0.8-1.4,1.4-2.3,1.7c-0.8,0.3-1.7,0.5-2.7,0.4c-0.9,0-1.8-0.2-2.7-0.6c-0.6-0.2-1.2-0.5-1.8-0.9
				c-0.6-0.4-1.2-0.9-1.6-1.5c-0.5-0.6-0.7-1.3-0.9-2.1c-0.1-0.8,0-1.8,0.4-2.9l3.8-10l2.9,1.1l-0.8,2.1l0.1,0
				c0.3-0.3,0.8-0.6,1.3-0.8c0.5-0.2,1.1-0.3,1.8-0.4C83.6,219.7,84.4,219.8,85.2,220.2z M83.7,222.3c-0.8-0.3-1.6-0.4-2.3-0.3
				c-0.7,0.1-1.3,0.4-1.8,0.8c-0.5,0.4-0.9,0.9-1.1,1.5l-0.7,1.9c0.1-0.1,0.4-0.1,0.7-0.1c0.3,0,0.7,0.1,1.1,0.2s0.8,0.2,1.2,0.2
				c0.4,0.1,0.7,0.2,1,0.2c0.6,0.1,1.2,0.2,1.7,0.2c0.5,0,1-0.1,1.4-0.3c0.4-0.2,0.7-0.6,0.9-1.1c0.3-0.7,0.2-1.4-0.2-1.9
				C85.1,223,84.5,222.6,83.7,222.3z"/>
			<path d="M60.3,226.7l1.2-2.2l7.8,4.1l-1.2,2.2L60.3,226.7z M64.2,233.1l-2.8-1.5l7.1-13.4c0.3-0.5,0.4-1,0.4-1.3
				c0-0.4-0.1-0.6-0.3-0.9c-0.2-0.2-0.5-0.4-0.8-0.6c-0.2-0.1-0.4-0.2-0.6-0.3c-0.2-0.1-0.3-0.1-0.4-0.1l0.7-2.5
				c0.2,0,0.5,0.1,0.8,0.2c0.3,0.1,0.7,0.2,1.2,0.5c0.7,0.4,1.3,0.9,1.8,1.5c0.5,0.6,0.8,1.3,0.9,2.1c0.1,0.8-0.1,1.6-0.5,2.4
				L64.2,233.1z"/>
			<path d="M53.9,225.6c0.5,0.3,0.7,0.7,0.9,1.2c0.1,0.5,0,1-0.2,1.4c-0.3,0.4-0.7,0.7-1.2,0.8c-0.5,0.1-1,0-1.5-0.3
				c-0.5-0.3-0.7-0.7-0.9-1.2c-0.1-0.5,0-1,0.2-1.4c0.3-0.4,0.7-0.7,1.2-0.8C53,225.2,53.5,225.3,53.9,225.6z M65.3,210.9l-8.7,13.5
				l-2.6-1.7l8.7-13.5L65.3,210.9z"/>
			<path d="M54.5,202.8c1.2,0.9,2,2.1,2.4,3.3c0.4,1.2,0.5,2.5,0.2,3.9c-0.3,1.4-1,2.7-2,4c-1.1,1.3-2.2,2.2-3.5,2.8
				c-1.3,0.6-2.6,0.8-3.9,0.6c-1.3-0.2-2.5-0.7-3.7-1.7c-1.2-0.9-2-2.1-2.4-3.3c-0.4-1.2-0.5-2.5-0.2-3.9c0.3-1.4,1-2.7,2.1-4
				c1.1-1.3,2.2-2.2,3.5-2.8c1.3-0.6,2.6-0.8,3.9-0.6C52.1,201.3,53.4,201.8,54.5,202.8z M52.8,204.8c-0.7-0.6-1.5-0.9-2.4-0.9
				c-0.8,0-1.6,0.2-2.4,0.7c-0.8,0.5-1.5,1.1-2.2,1.9c-0.7,0.8-1.1,1.6-1.4,2.5c-0.3,0.9-0.4,1.7-0.2,2.5c0.2,0.8,0.6,1.5,1.4,2.1
				c0.8,0.6,1.6,0.9,2.4,0.9c0.8,0,1.6-0.2,2.4-0.7c0.8-0.5,1.5-1.1,2.2-1.9c0.7-0.8,1.1-1.6,1.4-2.5c0.3-0.9,0.4-1.7,0.2-2.5
				C54,206.1,53.6,205.4,52.8,204.8z"/>
			<path d="M37.4,200.3l7.2-6.3l2.1,2.3L34.6,207l-2-2.3l2-1.7l-0.1-0.2c-0.9,0.3-1.8,0.3-2.7,0c-0.9-0.2-1.8-0.8-2.6-1.7
				c-0.7-0.8-1.2-1.7-1.4-2.6c-0.2-0.9-0.1-1.8,0.3-2.8c0.4-0.9,1.1-1.8,2.1-2.7l7.7-6.7l2.1,2.3l-7.4,6.5c-0.9,0.8-1.4,1.6-1.5,2.5
				c-0.1,0.9,0.2,1.7,0.9,2.5c0.5,0.5,1,0.9,1.6,1.1c0.6,0.2,1.2,0.2,1.9,0.1C36.1,201.2,36.8,200.9,37.4,200.3z"/>
			<path d="M28.7,171.3c0.7,1.3,1,2.6,0.9,4c-0.1,1.3-0.5,2.5-1.3,3.7c-0.8,1.1-1.9,2.1-3.4,2.9c-1.5,0.8-2.9,1.2-4.3,1.2
				c-1.4,0-2.7-0.3-3.8-0.9c-1.1-0.7-2.1-1.7-2.8-3c-0.7-1.3-1-2.6-0.9-4c0.1-1.3,0.5-2.5,1.3-3.7c0.8-1.1,1.9-2.1,3.4-2.9
				c1.5-0.8,2.9-1.2,4.3-1.2c1.4,0,2.7,0.3,3.8,0.9C27,169,27.9,170,28.7,171.3z M26.3,172.5c-0.5-0.9-1.1-1.4-1.8-1.8
				c-0.8-0.3-1.6-0.4-2.5-0.3c-0.9,0.1-1.8,0.4-2.7,0.9c-0.9,0.5-1.7,1.1-2.3,1.7c-0.6,0.7-1,1.4-1.2,2.2c-0.2,0.8,0,1.6,0.5,2.5
				c0.5,0.9,1.1,1.5,1.8,1.8c0.8,0.3,1.6,0.4,2.5,0.3c0.9-0.1,1.8-0.4,2.7-0.9c0.9-0.5,1.7-1.1,2.3-1.7c0.6-0.7,1-1.4,1.2-2.2
				C26.9,174.2,26.8,173.4,26.3,172.5z"/>
			<path d="M23.6,161.2l-16.8,6.3c-0.9,0.4-1.8,0.4-2.6,0.3s-1.5-0.5-2-1.1c-0.6-0.6-1-1.2-1.3-2c-0.2-0.6-0.4-1.1-0.4-1.6
				c-0.1-0.5-0.1-0.8-0.1-1l2.6-0.2c0,0.2,0,0.3,0.1,0.6c0,0.2,0.1,0.5,0.2,0.8c0.3,0.7,0.6,1.2,1.1,1.3c0.5,0.2,1,0.1,1.7-0.1
				l16.4-6.1L23.6,161.2z M6.2,160.6l2.4-0.9l3.2,8.5l-2.4,0.9L6.2,160.6z"/>
			<path d="M18.1,140.7c0.2,1,0.1,1.9-0.1,2.8c-0.2,0.9-0.7,1.6-1.3,2.2c-0.6,0.6-1.5,1-2.5,1.1c-0.9,0.1-1.7,0.1-2.3-0.2
				c-0.6-0.3-1.2-0.6-1.6-1.2c-0.4-0.5-0.8-1.1-1.1-1.8c-0.3-0.7-0.5-1.4-0.7-2.1c-0.3-0.9-0.5-1.7-0.6-2.3c-0.2-0.6-0.4-1-0.6-1.2
				c-0.2-0.2-0.5-0.3-0.9-0.3l-0.1,0c-0.9,0.1-1.6,0.5-2,1.1c-0.4,0.6-0.5,1.4-0.4,2.4c0.2,1,0.5,1.8,1.1,2.3c0.5,0.5,1.1,0.9,1.7,1
				l-0.2,3c-1-0.2-1.9-0.6-2.6-1.1c-0.7-0.6-1.3-1.3-1.7-2.1s-0.7-1.7-0.8-2.7c-0.1-0.6-0.1-1.3-0.1-2.1c0-0.7,0.2-1.4,0.5-2.1
				c0.3-0.7,0.8-1.3,1.4-1.8c0.7-0.5,1.6-0.9,2.7-1l10.5-1.7l0.5,3l-2.2,0.4l0,0.1c0.4,0.1,0.9,0.4,1.3,0.7c0.5,0.3,0.9,0.8,1.2,1.4
				C17.8,139.1,18,139.8,18.1,140.7z M15.6,140.4c-0.1-0.9-0.4-1.6-0.9-2.1s-1-0.9-1.5-1.2c-0.6-0.2-1.2-0.3-1.8-0.2l-2,0.3
				c0.1,0.1,0.3,0.3,0.4,0.6c0.1,0.3,0.3,0.6,0.4,1c0.1,0.4,0.2,0.8,0.4,1.1c0.1,0.4,0.2,0.7,0.3,0.9c0.2,0.6,0.4,1.1,0.6,1.6
				c0.2,0.5,0.6,0.8,1,1.1c0.4,0.2,0.8,0.3,1.4,0.2c0.8-0.1,1.3-0.5,1.6-1.1C15.6,142,15.7,141.3,15.6,140.4z"/>
			<path d="M6.7,118.3l9.5,0.7l-0.2,3.1L0,121l0.2-3l2.6,0.2l0-0.2c-0.8-0.4-1.5-1.1-1.9-1.9c-0.5-0.8-0.7-1.8-0.6-3
				c0.1-1.1,0.4-2,0.9-2.8c0.5-0.8,1.2-1.4,2.2-1.8c0.9-0.4,2.1-0.5,3.4-0.5l10.2,0.7l-0.2,3.1l-9.8-0.7c-1.2-0.1-2.1,0.2-2.8,0.7
				c-0.7,0.6-1.1,1.4-1.2,2.4c0,0.7,0.1,1.4,0.3,2c0.3,0.6,0.7,1.1,1.3,1.4C5.2,118.1,5.9,118.3,6.7,118.3z"/>
			<path d="M19.4,98.7c-0.4,1.5-1,2.8-1.9,3.7c-0.9,0.9-2.1,1.6-3.4,1.9c-1.3,0.3-2.8,0.3-4.5-0.1c-1.6-0.4-2.9-1-4-1.9
				c-1.1-0.9-1.8-1.9-2.3-3.2c-0.4-1.2-0.5-2.6-0.1-4c0.2-0.9,0.6-1.7,1-2.5c0.5-0.8,1.1-1.4,1.9-1.9c0.8-0.5,1.7-0.8,2.8-1
				c1.1-0.1,2.3,0,3.8,0.3l1.1,0.2l-2.9,12.4l-2.3-0.5l2.2-9.4c-0.8-0.2-1.6-0.2-2.2,0c-0.7,0.2-1.3,0.5-1.8,1
				c-0.5,0.5-0.8,1.2-1,1.9c-0.2,0.9-0.2,1.6,0.1,2.4c0.3,0.7,0.7,1.4,1.3,1.9c0.6,0.5,1.3,0.8,2.1,1l1.8,0.4c1,0.2,2,0.3,2.8,0.1
				c0.8-0.2,1.5-0.6,2-1.2c0.5-0.6,0.9-1.3,1.1-2.2c0.1-0.6,0.2-1.1,0.1-1.6c0-0.5-0.2-1-0.5-1.4c-0.2-0.4-0.6-0.8-1-1.1l1.2-2.8
				c0.8,0.4,1.4,1,1.9,1.8c0.5,0.7,0.8,1.6,1,2.6C19.7,96.5,19.7,97.6,19.4,98.7z"/>
			<path d="M22.7,86.3L6.1,84l1.3-2.9l12.1,2l0.1-0.1L10,75.2l1.3-2.9l12,1.9l0.1-0.1L14,66.4l1.3-2.9L28,74.3l-1.3,2.9l-11.9-1.8
				l-0.1,0.2l9.3,7.7L22.7,86.3z"/>
			<path d="M33.6,45.3l-1.4,2.5c-0.4-0.1-0.7-0.2-1.2-0.2c-0.4,0-0.8,0.1-1.3,0.3c-0.4,0.2-0.9,0.6-1.3,1.1
				c-0.6,0.7-0.9,1.4-0.9,2.1c-0.1,0.7,0.1,1.3,0.6,1.6c0.4,0.3,0.9,0.5,1.4,0.3c0.5-0.1,1.1-0.4,1.8-1l2.1-1.6
				c1.2-0.9,2.3-1.5,3.3-1.6c1-0.1,2,0.2,2.8,0.9c0.7,0.6,1.2,1.4,1.5,2.3c0.2,0.9,0.2,1.9-0.1,2.9c-0.3,1-0.8,2.1-1.7,3.1
				c-1.1,1.4-2.4,2.3-3.7,2.7c-1.3,0.4-2.6,0.3-3.9-0.4l1.5-2.6c0.7,0.3,1.4,0.4,2.1,0.2c0.7-0.2,1.3-0.7,1.9-1.4
				c0.6-0.8,1-1.6,1-2.3c0.1-0.7-0.2-1.3-0.7-1.7c-0.4-0.3-0.8-0.4-1.3-0.4c-0.5,0.1-1.1,0.4-1.7,0.8l-2.2,1.7
				c-1.2,0.9-2.3,1.5-3.4,1.6c-1,0.1-2-0.2-2.9-0.9c-0.7-0.6-1.2-1.3-1.4-2.2c-0.2-0.9-0.2-1.8,0.1-2.8c0.3-1,0.8-1.9,1.5-2.9
				c1.1-1.4,2.2-2.2,3.4-2.5C31.3,44.7,32.5,44.8,33.6,45.3z"/>
			<path d="M32.2,35.7l2.2-2.2l10.6,10.9c0.4,0.4,0.8,0.7,1.2,0.8c0.3,0.1,0.7,0.1,0.9,0c0.3-0.1,0.5-0.3,0.8-0.5
				c0.2-0.2,0.3-0.3,0.4-0.5c0.1-0.2,0.2-0.3,0.2-0.4l2.2,1.5c-0.1,0.2-0.2,0.4-0.4,0.7c-0.2,0.3-0.5,0.6-0.8,1
				c-0.6,0.6-1.2,1-2,1.3c-0.7,0.3-1.5,0.3-2.2,0.2s-1.5-0.6-2.2-1.3L32.2,35.7z M39.5,34l1.7,1.8L35,41.9l-1.7-1.8L39.5,34z"/>
			<path d="M58,47.2c-0.4,0.3-0.7,0.5-1.1,0.7c-0.3,0.2-0.6,0.3-0.8,0.3l-0.9-2.5c0.5-0.2,1-0.5,1.3-0.8c0.3-0.3,0.6-0.7,0.7-1.1
				c0.1-0.5,0-1-0.2-1.8L56.6,41l-14.5-9.5l2.7-2L55.6,37l0.1-0.1l-4.2-12.4l2.7-2L59.8,41c0.3,0.9,0.4,1.6,0.3,2.4
				c0,0.7-0.2,1.4-0.6,2.1C59.2,46.1,58.7,46.7,58,47.2z"/>
			<path d="M57.8,14.2l10.9,18.4L66,34.2L55.1,15.8L57.8,14.2z"/>
			<path d="M78.3,28.2c-1.5,0.7-2.8,0.9-4.1,0.7c-1.3-0.2-2.5-0.7-3.6-1.5c-1.1-0.9-1.9-2.1-2.6-3.6c-0.7-1.5-1-2.9-0.9-4.3
				c0-1.4,0.4-2.6,1.2-3.7c0.7-1.1,1.8-1.9,3.1-2.6c0.8-0.4,1.7-0.6,2.6-0.7c0.9-0.1,1.8,0,2.7,0.4c0.9,0.3,1.7,0.8,2.5,1.6
				c0.8,0.8,1.5,1.8,2.1,3.1l0.5,1l-11.7,5.2l-1-2.1l8.9-4c-0.3-0.7-0.8-1.4-1.4-1.8s-1.2-0.7-1.9-0.8c-0.7-0.1-1.4,0-2.2,0.4
				c-0.8,0.4-1.4,0.9-1.8,1.5c-0.4,0.7-0.7,1.4-0.7,2.1c0,0.8,0.1,1.5,0.4,2.3l0.7,1.7c0.4,1,1,1.7,1.6,2.3c0.7,0.5,1.4,0.8,2.2,0.9
				c0.8,0.1,1.6-0.1,2.4-0.4c0.5-0.2,1-0.5,1.4-0.9c0.4-0.4,0.7-0.8,0.8-1.2c0.2-0.5,0.3-0.9,0.2-1.5l2.9-0.7
				c0.1,0.9,0.1,1.8-0.2,2.6c-0.3,0.8-0.8,1.6-1.5,2.3C80.2,27.1,79.3,27.7,78.3,28.2z"/>
		</g>
	</g>
</g>
<g id="Layer_2" class="st1">
	<path class="st2" d="M95.2,156L78.5,97.8h13.4l9.6,40.4h0.5l10.6-40.4h11.5l10.6,40.5h0.5l9.6-40.5h13.4L141.7,156h-12l-11.1-38
		h-0.5l-11.1,38H95.2z"/>
</g>
</svg>
